{"nbformat":4,"nbformat_minor":0,"metadata":{"colab":{"name":"VideoPose3D.ipynb","provenance":[],"collapsed_sections":[],"mount_file_id":"1PxfXQ-uhWmABws4gmL68o9NnHuy25FKr","authorship_tag":"ABX9TyNX9nQW02Sr7ljBGTgpMSuy"},"kernelspec":{"name":"python3","display_name":"Python 3"},"accelerator":"GPU"},"cells":[{"cell_type":"code","metadata":{"colab":{"base_uri":"https://localhost:8080/"},"id":"fCDdjxSYefV0","executionInfo":{"status":"ok","timestamp":1609227189293,"user_tz":-540,"elapsed":1331,"user":{"displayName":"久保友輔","photoUrl":"","userId":"14128921004628888283"}},"outputId":"e9d3bb12-3b5b-4b94-9343-c74bf59cc0fd"},"source":["%cd drive/MyDrive/ProgramFiles/VideoPose3D/"],"execution_count":null,"outputs":[{"output_type":"stream","text":["/content/drive/MyDrive/ProgramFiles/VideoPose3D\n"],"name":"stdout"}]},{"cell_type":"code","metadata":{"colab":{"base_uri":"https://localhost:8080/"},"id":"mYyiFizShzHM","executionInfo":{"status":"ok","timestamp":1609227352308,"user_tz":-540,"elapsed":161765,"user":{"displayName":"久保友輔","photoUrl":"","userId":"14128921004628888283"}},"outputId":"08bc3754-5e6c-4e7d-dded-de896d8062a4"},"source":["!pip install -U torch==1.5 torchvision==0.6 -f https://download.pytorch.org/whl/cu101/torch_stable.html \n","!pip install cython pyyaml==5.1\n","!pip install -U 'git+https://github.com/cocodataset/cocoapi.git#subdirectory=PythonAPI'\n","import torch, torchvision\n","print(torch.__version__, torch.cuda.is_available())\n","!gcc --version\n","!pip install detectron2==0.1.3 -f https://dl.fbaipublicfiles.com/detectron2/wheels/cu101/torch1.5/index.html"],"execution_count":null,"outputs":[{"output_type":"stream","text":["Looking in links: https://download.pytorch.org/whl/cu101/torch_stable.html\n","Collecting torch==1.5\n","\u001b[?25l  Downloading https://download.pytorch.org/whl/cu101/torch-1.5.0%2Bcu101-cp36-cp36m-linux_x86_64.whl (703.8MB)\n","\u001b[K     |████████████████████████████████| 703.8MB 25kB/s \n","\u001b[?25hCollecting torchvision==0.6\n","\u001b[?25l  Downloading https://download.pytorch.org/whl/cu101/torchvision-0.6.0%2Bcu101-cp36-cp36m-linux_x86_64.whl (6.6MB)\n","\u001b[K     |████████████████████████████████| 6.6MB 4.2MB/s \n","\u001b[?25hRequirement already satisfied, skipping upgrade: numpy in /usr/local/lib/python3.6/dist-packages (from torch==1.5) (1.19.4)\n","Requirement already satisfied, skipping upgrade: future in /usr/local/lib/python3.6/dist-packages (from torch==1.5) (0.16.0)\n","Requirement already satisfied, skipping upgrade: pillow>=4.1.1 in /usr/local/lib/python3.6/dist-packages (from torchvision==0.6) (7.0.0)\n","Installing collected packages: torch, torchvision\n","  Found existing installation: torch 1.7.0+cu101\n","    Uninstalling torch-1.7.0+cu101:\n","      Successfully uninstalled torch-1.7.0+cu101\n","  Found existing installation: torchvision 0.8.1+cu101\n","    Uninstalling torchvision-0.8.1+cu101:\n","      Successfully uninstalled torchvision-0.8.1+cu101\n","Successfully installed torch-1.5.0+cu101 torchvision-0.6.0+cu101\n","Requirement already satisfied: cython in /usr/local/lib/python3.6/dist-packages (0.29.21)\n","Collecting pyyaml==5.1\n","\u001b[?25l  Downloading https://files.pythonhosted.org/packages/9f/2c/9417b5c774792634834e730932745bc09a7d36754ca00acf1ccd1ac2594d/PyYAML-5.1.tar.gz (274kB)\n","\u001b[K     |████████████████████████████████| 276kB 8.7MB/s \n","\u001b[?25hBuilding wheels for collected packages: pyyaml\n","  Building wheel for pyyaml (setup.py) ... \u001b[?25l\u001b[?25hdone\n","  Created wheel for pyyaml: filename=PyYAML-5.1-cp36-cp36m-linux_x86_64.whl size=44075 sha256=4facee9ce09ef6771d815df258209d24dc8674685e3371e8d7b72a2619138744\n","  Stored in directory: /root/.cache/pip/wheels/ad/56/bc/1522f864feb2a358ea6f1a92b4798d69ac783a28e80567a18b\n","Successfully built pyyaml\n","Installing collected packages: pyyaml\n","  Found existing installation: PyYAML 3.13\n","    Uninstalling PyYAML-3.13:\n","      Successfully uninstalled PyYAML-3.13\n","Successfully installed pyyaml-5.1\n","Collecting git+https://github.com/cocodataset/cocoapi.git#subdirectory=PythonAPI\n","  Cloning https://github.com/cocodataset/cocoapi.git to /tmp/pip-req-build-8gs32xdb\n","  Running command git clone -q https://github.com/cocodataset/cocoapi.git /tmp/pip-req-build-8gs32xdb\n","Requirement already satisfied, skipping upgrade: setuptools>=18.0 in /usr/local/lib/python3.6/dist-packages (from pycocotools==2.0) (51.0.0)\n","Requirement already satisfied, skipping upgrade: cython>=0.27.3 in /usr/local/lib/python3.6/dist-packages (from pycocotools==2.0) (0.29.21)\n","Requirement already satisfied, skipping upgrade: matplotlib>=2.1.0 in /usr/local/lib/python3.6/dist-packages (from pycocotools==2.0) (3.2.2)\n","Requirement already satisfied, skipping upgrade: kiwisolver>=1.0.1 in /usr/local/lib/python3.6/dist-packages (from matplotlib>=2.1.0->pycocotools==2.0) (1.3.1)\n","Requirement already satisfied, skipping upgrade: python-dateutil>=2.1 in /usr/local/lib/python3.6/dist-packages (from matplotlib>=2.1.0->pycocotools==2.0) (2.8.1)\n","Requirement already satisfied, skipping upgrade: cycler>=0.10 in /usr/local/lib/python3.6/dist-packages (from matplotlib>=2.1.0->pycocotools==2.0) (0.10.0)\n","Requirement already satisfied, skipping upgrade: pyparsing!=2.0.4,!=2.1.2,!=2.1.6,>=2.0.1 in /usr/local/lib/python3.6/dist-packages (from matplotlib>=2.1.0->pycocotools==2.0) (2.4.7)\n","Requirement already satisfied, skipping upgrade: numpy>=1.11 in /usr/local/lib/python3.6/dist-packages (from matplotlib>=2.1.0->pycocotools==2.0) (1.19.4)\n","Requirement already satisfied, skipping upgrade: six>=1.5 in /usr/local/lib/python3.6/dist-packages (from python-dateutil>=2.1->matplotlib>=2.1.0->pycocotools==2.0) (1.15.0)\n","Building wheels for collected packages: pycocotools\n","  Building wheel for pycocotools (setup.py) ... \u001b[?25l\u001b[?25hdone\n","  Created wheel for pycocotools: filename=pycocotools-2.0-cp36-cp36m-linux_x86_64.whl size=265562 sha256=518f97e008f58324fe2ebb1c41eff5cd96630d95fa19d73a59a545bc5e09dcf0\n","  Stored in directory: /tmp/pip-ephem-wheel-cache-4t3_y811/wheels/90/51/41/646daf401c3bc408ff10de34ec76587a9b3ebfac8d21ca5c3a\n","Successfully built pycocotools\n","Installing collected packages: pycocotools\n","  Found existing installation: pycocotools 2.0.2\n","    Uninstalling pycocotools-2.0.2:\n","      Successfully uninstalled pycocotools-2.0.2\n","Successfully installed pycocotools-2.0\n","1.5.0+cu101 True\n","gcc (Ubuntu 7.5.0-3ubuntu1~18.04) 7.5.0\n","Copyright (C) 2017 Free Software Foundation, Inc.\n","This is free software; see the source for copying conditions.  There is NO\n","warranty; not even for MERCHANTABILITY or FITNESS FOR A PARTICULAR PURPOSE.\n","\n","Looking in links: https://dl.fbaipublicfiles.com/detectron2/wheels/cu101/torch1.5/index.html\n","Collecting detectron2==0.1.3\n","\u001b[?25l  Downloading https://dl.fbaipublicfiles.com/detectron2/wheels/cu101/torch1.5/detectron2-0.1.3%2Bcu101-cp36-cp36m-linux_x86_64.whl (6.2MB)\n","\u001b[K     |████████████████████████████████| 6.2MB 6.5MB/s \n","\u001b[?25hRequirement already satisfied: tabulate in /usr/local/lib/python3.6/dist-packages (from detectron2==0.1.3) (0.8.7)\n","Requirement already satisfied: Pillow in /usr/local/lib/python3.6/dist-packages (from detectron2==0.1.3) (7.0.0)\n","Requirement already satisfied: termcolor>=1.1 in /usr/local/lib/python3.6/dist-packages (from detectron2==0.1.3) (1.1.0)\n","Requirement already satisfied: matplotlib in /usr/local/lib/python3.6/dist-packages (from detectron2==0.1.3) (3.2.2)\n","Requirement already satisfied: tensorboard in /usr/local/lib/python3.6/dist-packages (from detectron2==0.1.3) (2.4.0)\n","Requirement already satisfied: pydot in /usr/local/lib/python3.6/dist-packages (from detectron2==0.1.3) (1.3.0)\n","Collecting fvcore>=0.1.1\n","  Downloading https://files.pythonhosted.org/packages/8a/c8/46fccfaf9348e052e00b36765dee913dcd77a480bf3a9d4b4922602774ec/fvcore-0.1.2.post20201218.tar.gz\n","Requirement already satisfied: tqdm>4.29.0 in /usr/local/lib/python3.6/dist-packages (from detectron2==0.1.3) (4.41.1)\n","Collecting mock\n","  Downloading https://files.pythonhosted.org/packages/5c/03/b7e605db4a57c0f6fba744b11ef3ddf4ddebcada35022927a2b5fc623fdf/mock-4.0.3-py3-none-any.whl\n","Requirement already satisfied: future in /usr/local/lib/python3.6/dist-packages (from detectron2==0.1.3) (0.16.0)\n","Requirement already satisfied: cloudpickle in /usr/local/lib/python3.6/dist-packages (from detectron2==0.1.3) (1.3.0)\n","Collecting yacs>=0.1.6\n","  Downloading https://files.pythonhosted.org/packages/38/4f/fe9a4d472aa867878ce3bb7efb16654c5d63672b86dc0e6e953a67018433/yacs-0.1.8-py3-none-any.whl\n","Requirement already satisfied: python-dateutil>=2.1 in /usr/local/lib/python3.6/dist-packages (from matplotlib->detectron2==0.1.3) (2.8.1)\n","Requirement already satisfied: cycler>=0.10 in /usr/local/lib/python3.6/dist-packages (from matplotlib->detectron2==0.1.3) (0.10.0)\n","Requirement already satisfied: kiwisolver>=1.0.1 in /usr/local/lib/python3.6/dist-packages (from matplotlib->detectron2==0.1.3) (1.3.1)\n","Requirement already satisfied: pyparsing!=2.0.4,!=2.1.2,!=2.1.6,>=2.0.1 in /usr/local/lib/python3.6/dist-packages (from matplotlib->detectron2==0.1.3) (2.4.7)\n","Requirement already satisfied: numpy>=1.11 in /usr/local/lib/python3.6/dist-packages (from matplotlib->detectron2==0.1.3) (1.19.4)\n","Requirement already satisfied: tensorboard-plugin-wit>=1.6.0 in /usr/local/lib/python3.6/dist-packages (from tensorboard->detectron2==0.1.3) (1.7.0)\n","Requirement already satisfied: markdown>=2.6.8 in /usr/local/lib/python3.6/dist-packages (from tensorboard->detectron2==0.1.3) (3.3.3)\n","Requirement already satisfied: setuptools>=41.0.0 in /usr/local/lib/python3.6/dist-packages (from tensorboard->detectron2==0.1.3) (51.0.0)\n","Requirement already satisfied: wheel>=0.26; python_version >= \"3\" in /usr/local/lib/python3.6/dist-packages (from tensorboard->detectron2==0.1.3) (0.36.2)\n","Requirement already satisfied: protobuf>=3.6.0 in /usr/local/lib/python3.6/dist-packages (from tensorboard->detectron2==0.1.3) (3.12.4)\n","Requirement already satisfied: requests<3,>=2.21.0 in /usr/local/lib/python3.6/dist-packages (from tensorboard->detectron2==0.1.3) (2.23.0)\n","Requirement already satisfied: grpcio>=1.24.3 in /usr/local/lib/python3.6/dist-packages (from tensorboard->detectron2==0.1.3) (1.32.0)\n","Requirement already satisfied: six>=1.10.0 in /usr/local/lib/python3.6/dist-packages (from tensorboard->detectron2==0.1.3) (1.15.0)\n","Requirement already satisfied: google-auth<2,>=1.6.3 in /usr/local/lib/python3.6/dist-packages (from tensorboard->detectron2==0.1.3) (1.17.2)\n","Requirement already satisfied: werkzeug>=0.11.15 in /usr/local/lib/python3.6/dist-packages (from tensorboard->detectron2==0.1.3) (1.0.1)\n","Requirement already satisfied: absl-py>=0.4 in /usr/local/lib/python3.6/dist-packages (from tensorboard->detectron2==0.1.3) (0.10.0)\n","Requirement already satisfied: google-auth-oauthlib<0.5,>=0.4.1 in /usr/local/lib/python3.6/dist-packages (from tensorboard->detectron2==0.1.3) (0.4.2)\n","Requirement already satisfied: pyyaml>=5.1 in /usr/local/lib/python3.6/dist-packages (from fvcore>=0.1.1->detectron2==0.1.3) (5.1)\n","Collecting iopath>=0.1.2\n","  Downloading https://files.pythonhosted.org/packages/7a/9a/87a281c8cfc0ad1fceb228a4f854d02f19b2c2395476dd573327709b52ae/iopath-0.1.2.tar.gz\n","Requirement already satisfied: importlib-metadata; python_version < \"3.8\" in /usr/local/lib/python3.6/dist-packages (from markdown>=2.6.8->tensorboard->detectron2==0.1.3) (3.3.0)\n","Requirement already satisfied: idna<3,>=2.5 in /usr/local/lib/python3.6/dist-packages (from requests<3,>=2.21.0->tensorboard->detectron2==0.1.3) (2.10)\n","Requirement already satisfied: urllib3!=1.25.0,!=1.25.1,<1.26,>=1.21.1 in /usr/local/lib/python3.6/dist-packages (from requests<3,>=2.21.0->tensorboard->detectron2==0.1.3) (1.24.3)\n","Requirement already satisfied: certifi>=2017.4.17 in /usr/local/lib/python3.6/dist-packages (from requests<3,>=2.21.0->tensorboard->detectron2==0.1.3) (2020.12.5)\n","Requirement already satisfied: chardet<4,>=3.0.2 in /usr/local/lib/python3.6/dist-packages (from requests<3,>=2.21.0->tensorboard->detectron2==0.1.3) (3.0.4)\n","Requirement already satisfied: pyasn1-modules>=0.2.1 in /usr/local/lib/python3.6/dist-packages (from google-auth<2,>=1.6.3->tensorboard->detectron2==0.1.3) (0.2.8)\n","Requirement already satisfied: cachetools<5.0,>=2.0.0 in /usr/local/lib/python3.6/dist-packages (from google-auth<2,>=1.6.3->tensorboard->detectron2==0.1.3) (4.2.0)\n","Requirement already satisfied: rsa<5,>=3.1.4; python_version >= \"3\" in /usr/local/lib/python3.6/dist-packages (from google-auth<2,>=1.6.3->tensorboard->detectron2==0.1.3) (4.6)\n","Requirement already satisfied: requests-oauthlib>=0.7.0 in /usr/local/lib/python3.6/dist-packages (from google-auth-oauthlib<0.5,>=0.4.1->tensorboard->detectron2==0.1.3) (1.3.0)\n","Collecting portalocker\n","  Downloading https://files.pythonhosted.org/packages/89/a6/3814b7107e0788040870e8825eebf214d72166adf656ba7d4bf14759a06a/portalocker-2.0.0-py2.py3-none-any.whl\n","Requirement already satisfied: zipp>=0.5 in /usr/local/lib/python3.6/dist-packages (from importlib-metadata; python_version < \"3.8\"->markdown>=2.6.8->tensorboard->detectron2==0.1.3) (3.4.0)\n","Requirement already satisfied: typing-extensions>=3.6.4; python_version < \"3.8\" in /usr/local/lib/python3.6/dist-packages (from importlib-metadata; python_version < \"3.8\"->markdown>=2.6.8->tensorboard->detectron2==0.1.3) (3.7.4.3)\n","Requirement already satisfied: pyasn1<0.5.0,>=0.4.6 in /usr/local/lib/python3.6/dist-packages (from pyasn1-modules>=0.2.1->google-auth<2,>=1.6.3->tensorboard->detectron2==0.1.3) (0.4.8)\n","Requirement already satisfied: oauthlib>=3.0.0 in /usr/local/lib/python3.6/dist-packages (from requests-oauthlib>=0.7.0->google-auth-oauthlib<0.5,>=0.4.1->tensorboard->detectron2==0.1.3) (3.1.0)\n","Building wheels for collected packages: fvcore, iopath\n","  Building wheel for fvcore (setup.py) ... \u001b[?25l\u001b[?25hdone\n","  Created wheel for fvcore: filename=fvcore-0.1.2.post20201218-cp36-none-any.whl size=40701 sha256=c048f421a2808f5737b46af900f571e48b5bc922a41031b5b2fee01cad283063\n","  Stored in directory: /root/.cache/pip/wheels/b5/83/3f/e74a72d264351b5ada512da845a5c6abb81a34f6333c3a54ce\n","  Building wheel for iopath (setup.py) ... \u001b[?25l\u001b[?25hdone\n","  Created wheel for iopath: filename=iopath-0.1.2-cp36-none-any.whl size=10508 sha256=f6c66946cd6863be5065bc6d9de1794cd9c093223beb78d41741202f30b927e7\n","  Stored in directory: /root/.cache/pip/wheels/9e/01/e4/1b68f5a2a6b9450ea4246d91840a77e1169f7d4722d76bbc47\n","Successfully built fvcore iopath\n","Installing collected packages: yacs, portalocker, iopath, fvcore, mock, detectron2\n","Successfully installed detectron2-0.1.3+cu101 fvcore-0.1.2.post20201218 iopath-0.1.2 mock-4.0.3 portalocker-2.0.0 yacs-0.1.8\n"],"name":"stdout"}]},{"cell_type":"code","metadata":{"colab":{"base_uri":"https://localhost:8080/"},"id":"nspw-WPQkMUh","executionInfo":{"status":"ok","timestamp":1609227352309,"user_tz":-540,"elapsed":158248,"user":{"displayName":"久保友輔","photoUrl":"","userId":"14128921004628888283"}},"outputId":"79df469c-a16e-4b7f-e8ff-0aad8887b3e8"},"source":["%cd inference/"],"execution_count":null,"outputs":[{"output_type":"stream","text":["/content/drive/MyDrive/ProgramFiles/VideoPose3D/inference\n"],"name":"stdout"}]},{"cell_type":"code","metadata":{"colab":{"base_uri":"https://localhost:8080/"},"id":"tnTGvheqra5n","executionInfo":{"status":"ok","timestamp":1609227660401,"user_tz":-540,"elapsed":463103,"user":{"displayName":"久保友輔","photoUrl":"","userId":"14128921004628888283"}},"outputId":"26550f8f-a3cd-4269-b31a-1c1b874c3fde"},"source":["!python infer_video_d2.py \\\n","    --cfg COCO-Keypoints/keypoint_rcnn_R_101_FPN_3x.yaml \\\n","    --output-dir outputs \\\n","    --image-ext mp4 \\\n","    inputs/"],"execution_count":null,"outputs":[{"output_type":"stream","text":["** fvcore version of PathManager will be deprecated soon. **\n","** Please migrate to the version in iopath repo. **\n","https://github.com/facebookresearch/iopath \n","\n","Processing inputs/quad_crop.mp4\n","ffmpeg version 3.4.8-0ubuntu0.2 Copyright (c) 2000-2020 the FFmpeg developers\n","  built with gcc 7 (Ubuntu 7.5.0-3ubuntu1~18.04)\n","  configuration: --prefix=/usr --extra-version=0ubuntu0.2 --toolchain=hardened --libdir=/usr/lib/x86_64-linux-gnu --incdir=/usr/include/x86_64-linux-gnu --enable-gpl --disable-stripping --enable-avresample --enable-avisynth --enable-gnutls --enable-ladspa --enable-libass --enable-libbluray --enable-libbs2b --enable-libcaca --enable-libcdio --enable-libflite --enable-libfontconfig --enable-libfreetype --enable-libfribidi --enable-libgme --enable-libgsm --enable-libmp3lame --enable-libmysofa --enable-libopenjpeg --enable-libopenmpt --enable-libopus --enable-libpulse --enable-librubberband --enable-librsvg --enable-libshine --enable-libsnappy --enable-libsoxr --enable-libspeex --enable-libssh --enable-libtheora --enable-libtwolame --enable-libvorbis --enable-libvpx --enable-libwavpack --enable-libwebp --enable-libx265 --enable-libxml2 --enable-libxvid --enable-libzmq --enable-libzvbi --enable-omx --enable-openal --enable-opengl --enable-sdl2 --enable-libdc1394 --enable-libdrm --enable-libiec61883 --enable-chromaprint --enable-frei0r --enable-libopencv --enable-libx264 --enable-shared\n","  libavutil      55. 78.100 / 55. 78.100\n","  libavcodec     57.107.100 / 57.107.100\n","  libavformat    57. 83.100 / 57. 83.100\n","  libavdevice    57. 10.100 / 57. 10.100\n","  libavfilter     6.107.100 /  6.107.100\n","  libavresample   3.  7.  0 /  3.  7.  0\n","  libswscale      4.  8.100 /  4.  8.100\n","  libswresample   2.  9.100 /  2.  9.100\n","  libpostproc    54.  7.100 / 54.  7.100\n","Input #0, mov,mp4,m4a,3gp,3g2,mj2, from 'inputs/quad_crop.mp4':\n","  Metadata:\n","    major_brand     : isom\n","    minor_version   : 512\n","    compatible_brands: isomiso2avc1mp41\n","    encoder         : Lavf58.45.100\n","  Duration: 00:00:02.98, start: 0.000000, bitrate: 25186 kb/s\n","    Stream #0:0(und): Video: h264 (High 4:4:4 Predictive) (avc1 / 0x31637661), yuv420p, 768x532 [SAR 1:1 DAR 192:133], 25182 kb/s, 50 fps, 50 tbr, 12800 tbn, 100 tbc (default)\n","    Metadata:\n","      handler_name    : ISO Media file produced by Google Inc.\n","Stream mapping:\n","  Stream #0:0 -> #0:0 (h264 (native) -> rawvideo (native))\n","Press [q] to stop, [?] for help\n","Output #0, image2pipe, to 'pipe:':\n","  Metadata:\n","    major_brand     : isom\n","    minor_version   : 512\n","    compatible_brands: isomiso2avc1mp41\n","    encoder         : Lavf57.83.100\n","    Stream #0:0(und): Video: rawvideo (BGR[24] / 0x18524742), bgr24, 768x532 [SAR 1:1 DAR 192:133], q=2-31, 490291 kb/s, 50 fps, 50 tbn, 50 tbc (default)\n","    Metadata:\n","      handler_name    : ISO Media file produced by Google Inc.\n","      encoder         : Lavc57.107.100 rawvideo\n","Frame 0 processed in 0.249s\n","Frame 1 processed in 0.181s\n","Frame 2 processed in 0.173s\n","Frame 3 processed in 0.175s\n","Frame 4 processed in 0.172s\n","Frame 5 processed in 0.176s\n","Frame 6 processed in 0.175s\n","Frame 7 processed in 0.174s\n","Frame 8 processed in 0.174s\n","Frame 9 processed in 0.175s\n","Frame 10 processed in 0.174s\n","Frame 11 processed in 0.175s\n","Frame 12 processed in 0.176s\n","Frame 13 processed in 0.174s\n","Frame 14 processed in 0.173s\n","Frame 15 processed in 0.172s\n","Frame 16 processed in 0.171s\n","Frame 17 processed in 0.174s\n","Frame 18 processed in 0.171s\n","Frame 19 processed in 0.170s\n","Frame 20 processed in 0.172s\n","Frame 21 processed in 0.171s\n","Frame 22 processed in 0.169s\n","Frame 23 processed in 0.169s\n","Frame 24 processed in 0.170s\n","Frame 25 processed in 0.170s\n","Frame 26 processed in 0.167s\n","Frame 27 processed in 0.167s\n","Frame 28 processed in 0.171s\n","Frame 29 processed in 0.171s\n","Frame 30 processed in 0.171s\n","Frame 31 processed in 0.170s\n","Frame 32 processed in 0.168s\n","Frame 33 processed in 0.171s\n","Frame 34 processed in 0.172s\n","Frame 35 processed in 0.171s\n","Frame 36 processed in 0.172s\n","Frame 37 processed in 0.173s\n","Frame 38 processed in 0.171s\n","Frame 39 processed in 0.174s\n","Frame 40 processed in 0.175s\n","Frame 41 processed in 0.173s\n","Frame 42 processed in 0.174s\n","Frame 43 processed in 0.175s\n","Frame 44 processed in 0.174s\n","Frame 45 processed in 0.175s\n","Frame 46 processed in 0.176s\n","Frame 47 processed in 0.175s\n","Frame 48 processed in 0.175s\n","Frame 49 processed in 0.174s\n","Frame 50 processed in 0.174s\n","Frame 51 processed in 0.171s\n","Frame 52 processed in 0.168s\n","Frame 53 processed in 0.169s\n","Frame 54 processed in 0.168s\n","Frame 55 processed in 0.169s\n","Frame 56 processed in 0.172s\n","Frame 57 processed in 0.173s\n","Frame 58 processed in 0.173s\n","Frame 59 processed in 0.172s\n","Frame 60 processed in 0.170s\n","Frame 61 processed in 0.175s\n","Frame 62 processed in 0.170s\n","Frame 63 processed in 0.172s\n","Frame 64 processed in 0.174s\n","Frame 65 processed in 0.173s\n","Frame 66 processed in 0.171s\n","Frame 67 processed in 0.172s\n","Frame 68 processed in 0.172s\n","Frame 69 processed in 0.170s\n","Frame 70 processed in 0.174s\n","Frame 71 processed in 0.173s\n","Frame 72 processed in 0.175s\n","Frame 73 processed in 0.171s\n","Frame 74 processed in 0.170s\n","Frame 75 processed in 0.172s\n","Frame 76 processed in 0.177s\n","Frame 77 processed in 0.172s\n","Frame 78 processed in 0.160s\n","Frame 79 processed in 0.170s\n","Frame 80 processed in 0.172s\n","Frame 81 processed in 0.169s\n","Frame 82 processed in 0.170s\n","Frame 83 processed in 0.172s\n","Frame 84 processed in 0.170s\n","Frame 85 processed in 0.171s\n","Frame 86 processed in 0.171s\n","Frame 87 processed in 0.170s\n","Frame 88 processed in 0.172s\n","Frame 89 processed in 0.174s\n","Frame 90 processed in 0.170s\n","Frame 91 processed in 0.174s\n","Frame 92 processed in 0.171s\n","Frame 93 processed in 0.170s\n","Frame 94 processed in 0.171s\n","Frame 95 processed in 0.173s\n","Frame 96 processed in 0.172s\n","Frame 97 processed in 0.172s\n","Frame 98 processed in 0.175s\n","Frame 99 processed in 0.172s\n","Frame 100 processed in 0.177s\n","Frame 101 processed in 0.173s\n","Frame 102 processed in 0.178s\n","Frame 103 processed in 0.174s\n","Frame 104 processed in 0.175s\n","Frame 105 processed in 0.173s\n","Frame 106 processed in 0.173s\n","Frame 107 processed in 0.173s\n","Frame 108 processed in 0.172s\n","Frame 109 processed in 0.175s\n","Frame 110 processed in 0.173s\n","Frame 111 processed in 0.175s\n","Frame 112 processed in 0.176s\n","Frame 113 processed in 0.174s\n","Frame 114 processed in 0.181s\n","Frame 115 processed in 0.182s\n","Frame 116 processed in 0.182s\n","Frame 117 processed in 0.182s\n","Frame 118 processed in 0.182s\n","Frame 119 processed in 0.183s\n","Frame 120 processed in 0.184s\n","Frame 121 processed in 0.182s\n","Frame 122 processed in 0.183s\n","Frame 123 processed in 0.182s\n","Frame 124 processed in 0.183s\n","Frame 125 processed in 0.185s\n","Frame 126 processed in 0.183s\n","Frame 127 processed in 0.184s\n","Frame 128 processed in 0.185s\n","Frame 129 processed in 0.183s\n","Frame 130 processed in 0.185s\n","Frame 131 processed in 0.182s\n","Frame 132 processed in 0.182s\n","Frame 133 processed in 0.181s\n","Frame 134 processed in 0.180s\n","Frame 135 processed in 0.182s\n","Frame 136 processed in 0.183s\n","Frame 137 processed in 0.184s\n","Frame 138 processed in 0.186s\n","Frame 139 processed in 0.186s\n","Frame 140 processed in 0.184s\n","Frame 141 processed in 0.184s\n","Frame 142 processed in 0.184s\n","Frame 143 processed in 0.182s\n","Frame 144 processed in 0.185s\n","Frame 145 processed in 0.183s\n","Frame 146 processed in 0.178s\n","Frame 147 processed in 0.178s\n","frame=  149 fps=5.7 q=-0.0 Lsize=  178353kB time=00:00:02.98 bitrate=490291.2kbits/s speed=0.114x    \n","video:178353kB audio:0kB subtitle:0kB other streams:0kB global headers:0kB muxing overhead: 0.000000%\n","Frame 148 processed in 0.180s\n","/usr/local/lib/python3.6/dist-packages/numpy/core/_asarray.py:136: VisibleDeprecationWarning: Creating an ndarray from ragged nested sequences (which is a list-or-tuple of lists-or-tuples-or ndarrays with different lengths or shapes) is deprecated. If you meant to do this, you must specify 'dtype=object' when creating the ndarray\n","  return array(a, dtype, copy=False, order=order, subok=True)\n","Processing inputs/quad_slow.mp4\n","ffmpeg version 3.4.8-0ubuntu0.2 Copyright (c) 2000-2020 the FFmpeg developers\n","  built with gcc 7 (Ubuntu 7.5.0-3ubuntu1~18.04)\n","  configuration: --prefix=/usr --extra-version=0ubuntu0.2 --toolchain=hardened --libdir=/usr/lib/x86_64-linux-gnu --incdir=/usr/include/x86_64-linux-gnu --enable-gpl --disable-stripping --enable-avresample --enable-avisynth --enable-gnutls --enable-ladspa --enable-libass --enable-libbluray --enable-libbs2b --enable-libcaca --enable-libcdio --enable-libflite --enable-libfontconfig --enable-libfreetype --enable-libfribidi --enable-libgme --enable-libgsm --enable-libmp3lame --enable-libmysofa --enable-libopenjpeg --enable-libopenmpt --enable-libopus --enable-libpulse --enable-librubberband --enable-librsvg --enable-libshine --enable-libsnappy --enable-libsoxr --enable-libspeex --enable-libssh --enable-libtheora --enable-libtwolame --enable-libvorbis --enable-libvpx --enable-libwavpack --enable-libwebp --enable-libx265 --enable-libxml2 --enable-libxvid --enable-libzmq --enable-libzvbi --enable-omx --enable-openal --enable-opengl --enable-sdl2 --enable-libdc1394 --enable-libdrm --enable-libiec61883 --enable-chromaprint --enable-frei0r --enable-libopencv --enable-libx264 --enable-shared\n","  libavutil      55. 78.100 / 55. 78.100\n","  libavcodec     57.107.100 / 57.107.100\n","  libavformat    57. 83.100 / 57. 83.100\n","  libavdevice    57. 10.100 / 57. 10.100\n","  libavfilter     6.107.100 /  6.107.100\n","  libavresample   3.  7.  0 /  3.  7.  0\n","  libswscale      4.  8.100 /  4.  8.100\n","  libswresample   2.  9.100 /  2.  9.100\n","  libpostproc    54.  7.100 / 54.  7.100\n","Input #0, mov,mp4,m4a,3gp,3g2,mj2, from 'inputs/quad_slow.mp4':\n","  Metadata:\n","    major_brand     : isom\n","    minor_version   : 512\n","    compatible_brands: isomiso2mp41\n","    encoder         : Lavf58.65.100\n","  Duration: 00:00:02.94, start: 0.000000, bitrate: 2099 kb/s\n","    Stream #0:0(und): Video: mpeg4 (Simple Profile) (mp4v / 0x7634706D), yuv420p(tv, smpte170m/bt709/bt709), 1280x720 [SAR 1:1 DAR 16:9], 2095 kb/s, 50 fps, 50 tbr, 12800 tbn, 50 tbc (default)\n","    Metadata:\n","      handler_name    : ISO Media file produced by Google Inc.\n","Stream mapping:\n","  Stream #0:0 -> #0:0 (mpeg4 (native) -> rawvideo (native))\n","Press [q] to stop, [?] for help\n","Output #0, image2pipe, to 'pipe:':\n","  Metadata:\n","    major_brand     : isom\n","    minor_version   : 512\n","    compatible_brands: isomiso2mp41\n","    encoder         : Lavf57.83.100\n","    Stream #0:0(und): Video: rawvideo (BGR[24] / 0x18524742), bgr24, 1280x720 [SAR 1:1 DAR 16:9], q=2-31, 1105920 kb/s, 50 fps, 50 tbn, 50 tbc (default)\n","    Metadata:\n","      handler_name    : ISO Media file produced by Google Inc.\n","      encoder         : Lavc57.107.100 rawvideo\n","Frame 0 processed in 0.190s\n","Frame 1 processed in 0.183s\n","Frame 2 processed in 0.187s\n","Frame 3 processed in 0.185s\n","Frame 4 processed in 0.185s\n","Frame 5 processed in 0.188s\n","Frame 6 processed in 0.186s\n","Frame 7 processed in 0.183s\n","Frame 8 processed in 0.182s\n","Frame 9 processed in 0.184s\n","Frame 10 processed in 0.185s\n","Frame 11 processed in 0.184s\n","Frame 12 processed in 0.183s\n","Frame 13 processed in 0.178s\n","Frame 14 processed in 0.174s\n","Frame 15 processed in 0.172s\n","Frame 16 processed in 0.172s\n","Frame 17 processed in 0.171s\n","Frame 18 processed in 0.169s\n","Frame 19 processed in 0.170s\n","Frame 20 processed in 0.170s\n","Frame 21 processed in 0.179s\n","Frame 22 processed in 0.178s\n","Frame 23 processed in 0.170s\n","Frame 24 processed in 0.183s\n","Frame 25 processed in 0.170s\n","Frame 26 processed in 0.170s\n","Frame 27 processed in 0.174s\n","Frame 28 processed in 0.171s\n","Frame 29 processed in 0.171s\n","Frame 30 processed in 0.171s\n","Frame 31 processed in 0.173s\n","Frame 32 processed in 0.171s\n","Frame 33 processed in 0.173s\n","Frame 34 processed in 0.171s\n","Frame 35 processed in 0.170s\n","Frame 36 processed in 0.173s\n","Frame 37 processed in 0.171s\n","Frame 38 processed in 0.173s\n","Frame 39 processed in 0.174s\n","Frame 40 processed in 0.173s\n","Frame 41 processed in 0.171s\n","Frame 42 processed in 0.172s\n","Frame 43 processed in 0.170s\n","Frame 44 processed in 0.175s\n","Frame 45 processed in 0.169s\n","Frame 46 processed in 0.173s\n","Frame 47 processed in 0.171s\n","Frame 48 processed in 0.171s\n","Frame 49 processed in 0.171s\n","Frame 50 processed in 0.170s\n","Frame 51 processed in 0.176s\n","Frame 52 processed in 0.173s\n","Frame 53 processed in 0.178s\n","Frame 54 processed in 0.181s\n","Frame 55 processed in 0.176s\n","Frame 56 processed in 0.178s\n","Frame 57 processed in 0.176s\n","Frame 58 processed in 0.180s\n","Frame 59 processed in 0.182s\n","Frame 60 processed in 0.180s\n","Frame 61 processed in 0.186s\n","Frame 62 processed in 0.194s\n","Frame 63 processed in 0.187s\n","Frame 64 processed in 0.191s\n","Frame 65 processed in 0.190s\n","Frame 66 processed in 0.194s\n","Frame 67 processed in 0.192s\n","Frame 68 processed in 0.186s\n","Frame 69 processed in 0.195s\n","Frame 70 processed in 0.188s\n","Frame 71 processed in 0.186s\n","Frame 72 processed in 0.179s\n","Frame 73 processed in 0.178s\n","Frame 74 processed in 0.183s\n","Frame 75 processed in 0.175s\n","Frame 76 processed in 0.175s\n","Frame 77 processed in 0.189s\n","Frame 78 processed in 0.188s\n","Frame 79 processed in 0.183s\n","Frame 80 processed in 0.179s\n","Frame 81 processed in 0.187s\n","Frame 82 processed in 0.185s\n","Frame 83 processed in 0.182s\n","Frame 84 processed in 0.175s\n","Frame 85 processed in 0.179s\n","Frame 86 processed in 0.179s\n","Frame 87 processed in 0.177s\n","Frame 88 processed in 0.179s\n","Frame 89 processed in 0.179s\n","Frame 90 processed in 0.181s\n","Frame 91 processed in 0.183s\n","Frame 92 processed in 0.183s\n","Frame 93 processed in 0.187s\n","Frame 94 processed in 0.196s\n","Frame 95 processed in 0.192s\n","Frame 96 processed in 0.183s\n","Frame 97 processed in 0.185s\n","Frame 98 processed in 0.188s\n","Frame 99 processed in 0.199s\n","Frame 100 processed in 0.194s\n","Frame 101 processed in 0.193s\n","Frame 102 processed in 0.197s\n","Frame 103 processed in 0.200s\n","Frame 104 processed in 0.199s\n","Frame 105 processed in 0.199s\n","Frame 106 processed in 0.192s\n","Frame 107 processed in 0.193s\n","Frame 108 processed in 0.187s\n","Frame 109 processed in 0.192s\n","Frame 110 processed in 0.194s\n","Frame 111 processed in 0.191s\n","Frame 112 processed in 0.193s\n","Frame 113 processed in 0.195s\n","Frame 114 processed in 0.194s\n","Frame 115 processed in 0.190s\n","Frame 116 processed in 0.188s\n","Frame 117 processed in 0.196s\n","Frame 118 processed in 0.189s\n","Frame 119 processed in 0.191s\n","Frame 120 processed in 0.184s\n","Frame 121 processed in 0.186s\n","Frame 122 processed in 0.186s\n","Frame 123 processed in 0.189s\n","Frame 124 processed in 0.192s\n","Frame 125 processed in 0.197s\n","Frame 126 processed in 0.194s\n","Frame 127 processed in 0.195s\n","Frame 128 processed in 0.193s\n","Frame 129 processed in 0.196s\n","Frame 130 processed in 0.194s\n","Frame 131 processed in 0.187s\n","Frame 132 processed in 0.185s\n","Frame 133 processed in 0.173s\n","Frame 134 processed in 0.172s\n","Frame 135 processed in 0.183s\n","Frame 136 processed in 0.183s\n","Frame 137 processed in 0.187s\n","Frame 138 processed in 0.180s\n","Frame 139 processed in 0.178s\n","Frame 140 processed in 0.182s\n","Frame 141 processed in 0.186s\n","Frame 142 processed in 0.179s\n","Frame 143 processed in 0.187s\n","Frame 144 processed in 0.178s\n","Frame 145 processed in 0.188s\n","frame=  147 fps=5.5 q=-0.0 Lsize=  396900kB time=00:00:02.94 bitrate=1105920.0kbits/s speed=0.109x    \n","video:396900kB audio:0kB subtitle:0kB other streams:0kB global headers:0kB muxing overhead: 0.000000%\n","Frame 146 processed in 0.193s\n","/usr/local/lib/python3.6/dist-packages/numpy/core/_asarray.py:136: VisibleDeprecationWarning: Creating an ndarray from ragged nested sequences (which is a list-or-tuple of lists-or-tuples-or ndarrays with different lengths or shapes) is deprecated. If you meant to do this, you must specify 'dtype=object' when creating the ndarray\n","  return array(a, dtype, copy=False, order=order, subok=True)\n","Processing inputs/spin.mp4\n","ffmpeg version 3.4.8-0ubuntu0.2 Copyright (c) 2000-2020 the FFmpeg developers\n","  built with gcc 7 (Ubuntu 7.5.0-3ubuntu1~18.04)\n","  configuration: --prefix=/usr --extra-version=0ubuntu0.2 --toolchain=hardened --libdir=/usr/lib/x86_64-linux-gnu --incdir=/usr/include/x86_64-linux-gnu --enable-gpl --disable-stripping --enable-avresample --enable-avisynth --enable-gnutls --enable-ladspa --enable-libass --enable-libbluray --enable-libbs2b --enable-libcaca --enable-libcdio --enable-libflite --enable-libfontconfig --enable-libfreetype --enable-libfribidi --enable-libgme --enable-libgsm --enable-libmp3lame --enable-libmysofa --enable-libopenjpeg --enable-libopenmpt --enable-libopus --enable-libpulse --enable-librubberband --enable-librsvg --enable-libshine --enable-libsnappy --enable-libsoxr --enable-libspeex --enable-libssh --enable-libtheora --enable-libtwolame --enable-libvorbis --enable-libvpx --enable-libwavpack --enable-libwebp --enable-libx265 --enable-libxml2 --enable-libxvid --enable-libzmq --enable-libzvbi --enable-omx --enable-openal --enable-opengl --enable-sdl2 --enable-libdc1394 --enable-libdrm --enable-libiec61883 --enable-chromaprint --enable-frei0r --enable-libopencv --enable-libx264 --enable-shared\n","  libavutil      55. 78.100 / 55. 78.100\n","  libavcodec     57.107.100 / 57.107.100\n","  libavformat    57. 83.100 / 57. 83.100\n","  libavdevice    57. 10.100 / 57. 10.100\n","  libavfilter     6.107.100 /  6.107.100\n","  libavresample   3.  7.  0 /  3.  7.  0\n","  libswscale      4.  8.100 /  4.  8.100\n","  libswresample   2.  9.100 /  2.  9.100\n","  libpostproc    54.  7.100 / 54.  7.100\n","Input #0, mov,mp4,m4a,3gp,3g2,mj2, from 'inputs/spin.mp4':\n","  Metadata:\n","    major_brand     : isom\n","    minor_version   : 512\n","    compatible_brands: isomiso2avc1mp41\n","    encoder         : Lavf58.65.100\n","  Duration: 00:00:39.17, start: -0.033333, bitrate: 1524 kb/s\n","    Stream #0:0(und): Video: h264 (High) (avc1 / 0x31637661), yuv420p(tv, bt709), 1280x720 [SAR 1:1 DAR 16:9], 1528 kb/s, 30 fps, 30 tbr, 15360 tbn, 60 tbc (default)\n","    Metadata:\n","      handler_name    : ISO Media file produced by Google Inc.\n","Stream mapping:\n","  Stream #0:0 -> #0:0 (h264 (native) -> rawvideo (native))\n","Press [q] to stop, [?] for help\n","Output #0, image2pipe, to 'pipe:':\n","  Metadata:\n","    major_brand     : isom\n","    minor_version   : 512\n","    compatible_brands: isomiso2avc1mp41\n","    encoder         : Lavf57.83.100\n","    Stream #0:0(und): Video: rawvideo (BGR[24] / 0x18524742), bgr24, 1280x720 [SAR 1:1 DAR 16:9], q=2-31, 663552 kb/s, 30 fps, 30 tbn, 30 tbc (default)\n","    Metadata:\n","      handler_name    : ISO Media file produced by Google Inc.\n","      encoder         : Lavc57.107.100 rawvideo\n","Frame 0 processed in 0.270s\n","Frame 1 processed in 0.214s\n","Frame 2 processed in 0.207s\n","Frame 3 processed in 0.206s\n","Frame 4 processed in 0.211s\n","Frame 5 processed in 0.205s\n","Frame 6 processed in 0.206s\n","Frame 7 processed in 0.207s\n","Frame 8 processed in 0.204s\n","Frame 9 processed in 0.203s\n","Frame 10 processed in 0.206s\n","Frame 11 processed in 0.207s\n","Frame 12 processed in 0.210s\n","Frame 13 processed in 0.202s\n","Frame 14 processed in 0.202s\n","Frame 15 processed in 0.204s\n","Frame 16 processed in 0.196s\n","Frame 17 processed in 0.199s\n","Frame 18 processed in 0.198s\n","Frame 19 processed in 0.199s\n","Frame 20 processed in 0.206s\n","Frame 21 processed in 0.205s\n","Frame 22 processed in 0.199s\n","Frame 23 processed in 0.208s\n","Frame 24 processed in 0.213s\n","Frame 25 processed in 0.202s\n","Frame 26 processed in 0.206s\n","Frame 27 processed in 0.208s\n","Frame 28 processed in 0.207s\n","Frame 29 processed in 0.205s\n","Frame 30 processed in 0.205s\n","Frame 31 processed in 0.204s\n","Frame 32 processed in 0.206s\n","Frame 33 processed in 0.206s\n","Frame 34 processed in 0.209s\n","Frame 35 processed in 0.209s\n","Frame 36 processed in 0.212s\n","Frame 37 processed in 0.211s\n","Frame 38 processed in 0.218s\n","Frame 39 processed in 0.210s\n","Frame 40 processed in 0.206s\n","Frame 41 processed in 0.213s\n","Frame 42 processed in 0.209s\n","Frame 43 processed in 0.216s\n","Frame 44 processed in 0.217s\n","Frame 45 processed in 0.217s\n","Frame 46 processed in 0.218s\n","Frame 47 processed in 0.211s\n","Frame 48 processed in 0.211s\n","Frame 49 processed in 0.215s\n","Frame 50 processed in 0.211s\n","Frame 51 processed in 0.218s\n","Frame 52 processed in 0.220s\n","Frame 53 processed in 0.217s\n","Frame 54 processed in 0.207s\n","Frame 55 processed in 0.207s\n","Frame 56 processed in 0.202s\n","Frame 57 processed in 0.213s\n","Frame 58 processed in 0.214s\n","Frame 59 processed in 0.215s\n","Frame 60 processed in 0.210s\n","Frame 61 processed in 0.214s\n","Frame 62 processed in 0.201s\n","Frame 63 processed in 0.216s\n","Frame 64 processed in 0.216s\n","Frame 65 processed in 0.214s\n","Frame 66 processed in 0.214s\n","Frame 67 processed in 0.209s\n","Frame 68 processed in 0.200s\n","Frame 69 processed in 0.192s\n","Frame 70 processed in 0.209s\n","Frame 71 processed in 0.210s\n","Frame 72 processed in 0.216s\n","Frame 73 processed in 0.215s\n","Frame 74 processed in 0.212s\n","Frame 75 processed in 0.215s\n","Frame 76 processed in 0.213s\n","Frame 77 processed in 0.211s\n","Frame 78 processed in 0.218s\n","Frame 79 processed in 0.221s\n","Frame 80 processed in 0.212s\n","Frame 81 processed in 0.211s\n","Frame 82 processed in 0.207s\n","Frame 83 processed in 0.214s\n","Frame 84 processed in 0.215s\n","Frame 85 processed in 0.217s\n","Frame 86 processed in 0.216s\n","Frame 87 processed in 0.214s\n","Frame 88 processed in 0.214s\n","Frame 89 processed in 0.214s\n","Frame 90 processed in 0.211s\n","Frame 91 processed in 0.218s\n","Frame 92 processed in 0.219s\n","Frame 93 processed in 0.221s\n","Frame 94 processed in 0.207s\n","Frame 95 processed in 0.212s\n","Frame 96 processed in 0.210s\n","Frame 97 processed in 0.218s\n","Frame 98 processed in 0.218s\n","Frame 99 processed in 0.214s\n","Frame 100 processed in 0.215s\n","Frame 101 processed in 0.215s\n","Frame 102 processed in 0.212s\n","Frame 103 processed in 0.209s\n","Frame 104 processed in 0.212s\n","Frame 105 processed in 0.210s\n","Frame 106 processed in 0.219s\n","Frame 107 processed in 0.219s\n","Frame 108 processed in 0.217s\n","Frame 109 processed in 0.215s\n","Frame 110 processed in 0.219s\n","Frame 111 processed in 0.213s\n","Frame 112 processed in 0.218s\n","Frame 113 processed in 0.221s\n","Frame 114 processed in 0.218s\n","Frame 115 processed in 0.220s\n","Frame 116 processed in 0.216s\n","Frame 117 processed in 0.212s\n","Frame 118 processed in 0.213s\n","Frame 119 processed in 0.214s\n","Frame 120 processed in 0.213s\n","Frame 121 processed in 0.219s\n","Frame 122 processed in 0.215s\n","Frame 123 processed in 0.216s\n","Frame 124 processed in 0.212s\n","Frame 125 processed in 0.217s\n","Frame 126 processed in 0.213s\n","Frame 127 processed in 0.213s\n","Frame 128 processed in 0.214s\n","Frame 129 processed in 0.212s\n","Frame 130 processed in 0.215s\n","Frame 131 processed in 0.215s\n","Frame 132 processed in 0.215s\n","Frame 133 processed in 0.211s\n","Frame 134 processed in 0.230s\n","Frame 135 processed in 0.227s\n","Frame 136 processed in 0.219s\n","Frame 137 processed in 0.220s\n","Frame 138 processed in 0.212s\n","Frame 139 processed in 0.218s\n","Frame 140 processed in 0.218s\n","Frame 141 processed in 0.214s\n","Frame 142 processed in 0.222s\n","Frame 143 processed in 0.215s\n","Frame 144 processed in 0.211s\n","Frame 145 processed in 0.214s\n","Frame 146 processed in 0.217s\n","Frame 147 processed in 0.215s\n","Frame 148 processed in 0.218s\n","Frame 149 processed in 0.215s\n","Frame 150 processed in 0.223s\n","Frame 151 processed in 0.218s\n","Frame 152 processed in 0.217s\n","Frame 153 processed in 0.217s\n","Frame 154 processed in 0.211s\n","Frame 155 processed in 0.215s\n","Frame 156 processed in 0.217s\n","Frame 157 processed in 0.213s\n","Frame 158 processed in 0.218s\n","Frame 159 processed in 0.215s\n","Frame 160 processed in 0.214s\n","Frame 161 processed in 0.212s\n","Frame 162 processed in 0.214s\n","Frame 163 processed in 0.218s\n","Frame 164 processed in 0.214s\n","Frame 165 processed in 0.214s\n","Frame 166 processed in 0.217s\n","Frame 167 processed in 0.213s\n","Frame 168 processed in 0.212s\n","Frame 169 processed in 0.212s\n","Frame 170 processed in 0.212s\n","Frame 171 processed in 0.214s\n","Frame 172 processed in 0.208s\n","Frame 173 processed in 0.213s\n","Frame 174 processed in 0.211s\n","Frame 175 processed in 0.215s\n","Frame 176 processed in 0.216s\n","Frame 177 processed in 0.211s\n","Frame 178 processed in 0.215s\n","Frame 179 processed in 0.218s\n","Frame 180 processed in 0.211s\n","Frame 181 processed in 0.215s\n","Frame 182 processed in 0.216s\n","Frame 183 processed in 0.209s\n","Frame 184 processed in 0.213s\n","Frame 185 processed in 0.208s\n","Frame 186 processed in 0.215s\n","Frame 187 processed in 0.208s\n","Frame 188 processed in 0.211s\n","Frame 189 processed in 0.212s\n","Frame 190 processed in 0.213s\n","Frame 191 processed in 0.214s\n","Frame 192 processed in 0.211s\n","Frame 193 processed in 0.219s\n","Frame 194 processed in 0.212s\n","Frame 195 processed in 0.210s\n","Frame 196 processed in 0.210s\n","Frame 197 processed in 0.208s\n","Frame 198 processed in 0.215s\n","Frame 199 processed in 0.213s\n","Frame 200 processed in 0.216s\n","Frame 201 processed in 0.218s\n","Frame 202 processed in 0.214s\n","Frame 203 processed in 0.211s\n","Frame 204 processed in 0.214s\n","Frame 205 processed in 0.217s\n","Frame 206 processed in 0.207s\n","Frame 207 processed in 0.217s\n","Frame 208 processed in 0.219s\n","Frame 209 processed in 0.217s\n","Frame 210 processed in 0.216s\n","Frame 211 processed in 0.231s\n","Frame 212 processed in 0.212s\n","Frame 213 processed in 0.211s\n","Frame 214 processed in 0.213s\n","Frame 215 processed in 0.215s\n","Frame 216 processed in 0.218s\n","Frame 217 processed in 0.219s\n","Frame 218 processed in 0.214s\n","Frame 219 processed in 0.215s\n","Frame 220 processed in 0.217s\n","Frame 221 processed in 0.218s\n","Frame 222 processed in 0.216s\n","Frame 223 processed in 0.210s\n","Frame 224 processed in 0.217s\n","Frame 225 processed in 0.218s\n","Frame 226 processed in 0.219s\n","Frame 227 processed in 0.217s\n","Frame 228 processed in 0.227s\n","Frame 229 processed in 0.229s\n","Frame 230 processed in 0.215s\n","Frame 231 processed in 0.217s\n","Frame 232 processed in 0.223s\n","Frame 233 processed in 0.216s\n","Frame 234 processed in 0.212s\n","Frame 235 processed in 0.216s\n","Frame 236 processed in 0.220s\n","Frame 237 processed in 0.217s\n","Frame 238 processed in 0.216s\n","Frame 239 processed in 0.214s\n","Frame 240 processed in 0.218s\n","Frame 241 processed in 0.219s\n","Frame 242 processed in 0.214s\n","Frame 243 processed in 0.215s\n","Frame 244 processed in 0.219s\n","Frame 245 processed in 0.220s\n","Frame 246 processed in 0.216s\n","Frame 247 processed in 0.212s\n","Frame 248 processed in 0.216s\n","Frame 249 processed in 0.216s\n","Frame 250 processed in 0.217s\n","Frame 251 processed in 0.213s\n","Frame 252 processed in 0.218s\n","Frame 253 processed in 0.217s\n","Frame 254 processed in 0.215s\n","Frame 255 processed in 0.210s\n","Frame 256 processed in 0.218s\n","Frame 257 processed in 0.216s\n","Frame 258 processed in 0.217s\n","Frame 259 processed in 0.218s\n","Frame 260 processed in 0.212s\n","Frame 261 processed in 0.213s\n","Frame 262 processed in 0.217s\n","Frame 263 processed in 0.213s\n","Frame 264 processed in 0.212s\n","Frame 265 processed in 0.212s\n","Frame 266 processed in 0.214s\n","Frame 267 processed in 0.213s\n","Frame 268 processed in 0.210s\n","Frame 269 processed in 0.214s\n","Frame 270 processed in 0.214s\n","Frame 271 processed in 0.212s\n","Frame 272 processed in 0.215s\n","Frame 273 processed in 0.220s\n","Frame 274 processed in 0.217s\n","Frame 275 processed in 0.215s\n","Frame 276 processed in 0.213s\n","Frame 277 processed in 0.214s\n","Frame 278 processed in 0.210s\n","Frame 279 processed in 0.214s\n","Frame 280 processed in 0.215s\n","Frame 281 processed in 0.219s\n","Frame 282 processed in 0.224s\n","Frame 283 processed in 0.215s\n","Frame 284 processed in 0.217s\n","Frame 285 processed in 0.216s\n","Frame 286 processed in 0.216s\n","Frame 287 processed in 0.214s\n","Frame 288 processed in 0.214s\n","Frame 289 processed in 0.210s\n","Frame 290 processed in 0.211s\n","Frame 291 processed in 0.215s\n","Frame 292 processed in 0.214s\n","Frame 293 processed in 0.217s\n","Frame 294 processed in 0.218s\n","Frame 295 processed in 0.213s\n","Frame 296 processed in 0.212s\n","Frame 297 processed in 0.215s\n","Frame 298 processed in 0.214s\n","Frame 299 processed in 0.212s\n","Frame 300 processed in 0.214s\n","Frame 301 processed in 0.223s\n","Frame 302 processed in 0.217s\n","Frame 303 processed in 0.210s\n","Frame 304 processed in 0.215s\n","Frame 305 processed in 0.215s\n","Frame 306 processed in 0.214s\n","Frame 307 processed in 0.215s\n","Frame 308 processed in 0.217s\n","Frame 309 processed in 0.215s\n","Frame 310 processed in 0.219s\n","Frame 311 processed in 0.212s\n","Frame 312 processed in 0.217s\n","Frame 313 processed in 0.219s\n","Frame 314 processed in 0.225s\n","Frame 315 processed in 0.213s\n","Frame 316 processed in 0.212s\n","Frame 317 processed in 0.209s\n","Frame 318 processed in 0.210s\n","Frame 319 processed in 0.210s\n","Frame 320 processed in 0.212s\n","Frame 321 processed in 0.212s\n","Frame 322 processed in 0.213s\n","Frame 323 processed in 0.211s\n","Frame 324 processed in 0.213s\n","Frame 325 processed in 0.210s\n","Frame 326 processed in 0.212s\n","Frame 327 processed in 0.206s\n","Frame 328 processed in 0.210s\n","Frame 329 processed in 0.204s\n","Frame 330 processed in 0.203s\n","Frame 331 processed in 0.203s\n","Frame 332 processed in 0.201s\n","Frame 333 processed in 0.206s\n","Frame 334 processed in 0.204s\n","Frame 335 processed in 0.204s\n","Frame 336 processed in 0.205s\n","Frame 337 processed in 0.201s\n","Frame 338 processed in 0.208s\n","Frame 339 processed in 0.211s\n","Frame 340 processed in 0.200s\n","Frame 341 processed in 0.201s\n","Frame 342 processed in 0.200s\n","Frame 343 processed in 0.204s\n","Frame 344 processed in 0.205s\n","Frame 345 processed in 0.204s\n","Frame 346 processed in 0.203s\n","Frame 347 processed in 0.203s\n","Frame 348 processed in 0.200s\n","Frame 349 processed in 0.203s\n","Frame 350 processed in 0.201s\n","Frame 351 processed in 0.202s\n","Frame 352 processed in 0.203s\n","Frame 353 processed in 0.211s\n","Frame 354 processed in 0.200s\n","Frame 355 processed in 0.201s\n","Frame 356 processed in 0.199s\n","Frame 357 processed in 0.203s\n","Frame 358 processed in 0.202s\n","Frame 359 processed in 0.200s\n","Frame 360 processed in 0.201s\n","Frame 361 processed in 0.202s\n","Frame 362 processed in 0.202s\n","Frame 363 processed in 0.205s\n","Frame 364 processed in 0.202s\n","Frame 365 processed in 0.202s\n","Frame 366 processed in 0.207s\n","Frame 367 processed in 0.207s\n","Frame 368 processed in 0.205s\n","Frame 369 processed in 0.207s\n","Frame 370 processed in 0.207s\n","Frame 371 processed in 0.204s\n","Frame 372 processed in 0.203s\n","Frame 373 processed in 0.204s\n","Frame 374 processed in 0.205s\n","Frame 375 processed in 0.206s\n","Frame 376 processed in 0.206s\n","Frame 377 processed in 0.205s\n","Frame 378 processed in 0.204s\n","Frame 379 processed in 0.209s\n","Frame 380 processed in 0.206s\n","Frame 381 processed in 0.205s\n","Frame 382 processed in 0.211s\n","Frame 383 processed in 0.205s\n","Frame 384 processed in 0.201s\n","Frame 385 processed in 0.202s\n","Frame 386 processed in 0.202s\n","Frame 387 processed in 0.203s\n","Frame 388 processed in 0.203s\n","Frame 389 processed in 0.204s\n","Frame 390 processed in 0.200s\n","Frame 391 processed in 0.199s\n","Frame 392 processed in 0.199s\n","Frame 393 processed in 0.202s\n","Frame 394 processed in 0.200s\n","Frame 395 processed in 0.201s\n","Frame 396 processed in 0.203s\n","Frame 397 processed in 0.202s\n","Frame 398 processed in 0.201s\n","Frame 399 processed in 0.201s\n","Frame 400 processed in 0.202s\n","Frame 401 processed in 0.204s\n","Frame 402 processed in 0.205s\n","Frame 403 processed in 0.206s\n","Frame 404 processed in 0.210s\n","Frame 405 processed in 0.204s\n","Frame 406 processed in 0.205s\n","Frame 407 processed in 0.209s\n","Frame 408 processed in 0.203s\n","Frame 409 processed in 0.202s\n","Frame 410 processed in 0.201s\n","Frame 411 processed in 0.203s\n","Frame 412 processed in 0.203s\n","Frame 413 processed in 0.200s\n","Frame 414 processed in 0.202s\n","Frame 415 processed in 0.202s\n","Frame 416 processed in 0.201s\n","Frame 417 processed in 0.203s\n","Frame 418 processed in 0.201s\n","Frame 419 processed in 0.201s\n","Frame 420 processed in 0.201s\n","Frame 421 processed in 0.199s\n","Frame 422 processed in 0.203s\n","Frame 423 processed in 0.197s\n","Frame 424 processed in 0.201s\n","Frame 425 processed in 0.199s\n","Frame 426 processed in 0.203s\n","Frame 427 processed in 0.202s\n","Frame 428 processed in 0.202s\n","Frame 429 processed in 0.201s\n","Frame 430 processed in 0.202s\n","Frame 431 processed in 0.203s\n","Frame 432 processed in 0.200s\n","Frame 433 processed in 0.204s\n","Frame 434 processed in 0.204s\n","Frame 435 processed in 0.206s\n","Frame 436 processed in 0.202s\n","Frame 437 processed in 0.205s\n","Frame 438 processed in 0.203s\n","Frame 439 processed in 0.207s\n","Frame 440 processed in 0.207s\n","Frame 441 processed in 0.207s\n","Frame 442 processed in 0.204s\n","Frame 443 processed in 0.205s\n","Frame 444 processed in 0.206s\n","Frame 445 processed in 0.205s\n","Frame 446 processed in 0.203s\n","Frame 447 processed in 0.204s\n","Frame 448 processed in 0.201s\n","Frame 449 processed in 0.200s\n","Frame 450 processed in 0.199s\n","Frame 451 processed in 0.192s\n","Frame 452 processed in 0.199s\n","Frame 453 processed in 0.205s\n","Frame 454 processed in 0.210s\n","Frame 455 processed in 0.205s\n","Frame 456 processed in 0.204s\n","Frame 457 processed in 0.201s\n","Frame 458 processed in 0.202s\n","Frame 459 processed in 0.201s\n","Frame 460 processed in 0.201s\n","Frame 461 processed in 0.197s\n","Frame 462 processed in 0.197s\n","Frame 463 processed in 0.201s\n","Frame 464 processed in 0.203s\n","Frame 465 processed in 0.204s\n","Frame 466 processed in 0.214s\n","Frame 467 processed in 0.208s\n","Frame 468 processed in 0.213s\n","Frame 469 processed in 0.208s\n","Frame 470 processed in 0.200s\n","Frame 471 processed in 0.198s\n","Frame 472 processed in 0.199s\n","Frame 473 processed in 0.198s\n","Frame 474 processed in 0.203s\n","Frame 475 processed in 0.204s\n","Frame 476 processed in 0.203s\n","Frame 477 processed in 0.203s\n","Frame 478 processed in 0.202s\n","Frame 479 processed in 0.206s\n","Frame 480 processed in 0.198s\n","Frame 481 processed in 0.197s\n","Frame 482 processed in 0.199s\n","Frame 483 processed in 0.200s\n","Frame 484 processed in 0.206s\n","Frame 485 processed in 0.202s\n","Frame 486 processed in 0.206s\n","Frame 487 processed in 0.210s\n","Frame 488 processed in 0.209s\n","Frame 489 processed in 0.204s\n","Frame 490 processed in 0.210s\n","Frame 491 processed in 0.206s\n","Frame 492 processed in 0.204s\n","Frame 493 processed in 0.200s\n","Frame 494 processed in 0.202s\n","Frame 495 processed in 0.199s\n","Frame 496 processed in 0.204s\n","Frame 497 processed in 0.202s\n","Frame 498 processed in 0.203s\n","Frame 499 processed in 0.205s\n","Frame 500 processed in 0.202s\n","Frame 501 processed in 0.197s\n","Frame 502 processed in 0.196s\n","Frame 503 processed in 0.196s\n","Frame 504 processed in 0.198s\n","Frame 505 processed in 0.196s\n","Frame 506 processed in 0.196s\n","Frame 507 processed in 0.195s\n","Frame 508 processed in 0.198s\n","Frame 509 processed in 0.198s\n","Frame 510 processed in 0.204s\n","Frame 511 processed in 0.201s\n","Frame 512 processed in 0.202s\n","Frame 513 processed in 0.200s\n","Frame 514 processed in 0.194s\n","Frame 515 processed in 0.198s\n","Frame 516 processed in 0.195s\n","Frame 517 processed in 0.198s\n","Frame 518 processed in 0.199s\n","Frame 519 processed in 0.199s\n","Frame 520 processed in 0.200s\n","Frame 521 processed in 0.199s\n","Frame 522 processed in 0.196s\n","Frame 523 processed in 0.194s\n","Frame 524 processed in 0.199s\n","Frame 525 processed in 0.201s\n","Frame 526 processed in 0.198s\n","Frame 527 processed in 0.197s\n","Frame 528 processed in 0.203s\n","Frame 529 processed in 0.193s\n","Frame 530 processed in 0.198s\n","Frame 531 processed in 0.193s\n","Frame 532 processed in 0.195s\n","Frame 533 processed in 0.201s\n","Frame 534 processed in 0.203s\n","Frame 535 processed in 0.194s\n","Frame 536 processed in 0.195s\n","Frame 537 processed in 0.193s\n","Frame 538 processed in 0.193s\n","Frame 539 processed in 0.195s\n","Frame 540 processed in 0.194s\n","Frame 541 processed in 0.193s\n","Frame 542 processed in 0.193s\n","Frame 543 processed in 0.192s\n","Frame 544 processed in 0.195s\n","Frame 545 processed in 0.201s\n","Frame 546 processed in 0.193s\n","Frame 547 processed in 0.195s\n","Frame 548 processed in 0.195s\n","Frame 549 processed in 0.197s\n","Frame 550 processed in 0.193s\n","Frame 551 processed in 0.197s\n","Frame 552 processed in 0.198s\n","Frame 553 processed in 0.196s\n","Frame 554 processed in 0.194s\n","Frame 555 processed in 0.194s\n","Frame 556 processed in 0.199s\n","Frame 557 processed in 0.198s\n","Frame 558 processed in 0.199s\n","Frame 559 processed in 0.197s\n","Frame 560 processed in 0.199s\n","Frame 561 processed in 0.195s\n","Frame 562 processed in 0.195s\n","Frame 563 processed in 0.204s\n","Frame 564 processed in 0.200s\n","Frame 565 processed in 0.200s\n","Frame 566 processed in 0.197s\n","Frame 567 processed in 0.203s\n","Frame 568 processed in 0.202s\n","Frame 569 processed in 0.199s\n","Frame 570 processed in 0.199s\n","Frame 571 processed in 0.196s\n","Frame 572 processed in 0.195s\n","Frame 573 processed in 0.200s\n","Frame 574 processed in 0.198s\n","Frame 575 processed in 0.199s\n","Frame 576 processed in 0.199s\n","Frame 577 processed in 0.201s\n","Frame 578 processed in 0.201s\n","Frame 579 processed in 0.197s\n","Frame 580 processed in 0.196s\n","Frame 581 processed in 0.196s\n","Frame 582 processed in 0.197s\n","Frame 583 processed in 0.199s\n","Frame 584 processed in 0.199s\n","Frame 585 processed in 0.198s\n","Frame 586 processed in 0.197s\n","Frame 587 processed in 0.200s\n","Frame 588 processed in 0.201s\n","Frame 589 processed in 0.195s\n","Frame 590 processed in 0.196s\n","Frame 591 processed in 0.197s\n","Frame 592 processed in 0.198s\n","Frame 593 processed in 0.200s\n","Frame 594 processed in 0.200s\n","Frame 595 processed in 0.199s\n","Frame 596 processed in 0.194s\n","Frame 597 processed in 0.198s\n","Frame 598 processed in 0.198s\n","Frame 599 processed in 0.196s\n","Frame 600 processed in 0.196s\n","Frame 601 processed in 0.195s\n","Frame 602 processed in 0.195s\n","Frame 603 processed in 0.197s\n","Frame 604 processed in 0.198s\n","Frame 605 processed in 0.198s\n","Frame 606 processed in 0.201s\n","Frame 607 processed in 0.195s\n","Frame 608 processed in 0.196s\n","Frame 609 processed in 0.195s\n","Frame 610 processed in 0.199s\n","Frame 611 processed in 0.199s\n","Frame 612 processed in 0.201s\n","Frame 613 processed in 0.201s\n","Frame 614 processed in 0.199s\n","Frame 615 processed in 0.197s\n","Frame 616 processed in 0.195s\n","Frame 617 processed in 0.197s\n","Frame 618 processed in 0.198s\n","Frame 619 processed in 0.198s\n","Frame 620 processed in 0.198s\n","Frame 621 processed in 0.198s\n","Frame 622 processed in 0.197s\n","Frame 623 processed in 0.192s\n","Frame 624 processed in 0.195s\n","Frame 625 processed in 0.198s\n","Frame 626 processed in 0.200s\n","Frame 627 processed in 0.204s\n","Frame 628 processed in 0.198s\n","Frame 629 processed in 0.199s\n","Frame 630 processed in 0.194s\n","Frame 631 processed in 0.195s\n","Frame 632 processed in 0.198s\n","Frame 633 processed in 0.200s\n","Frame 634 processed in 0.200s\n","Frame 635 processed in 0.199s\n","Frame 636 processed in 0.206s\n","Frame 637 processed in 0.199s\n","Frame 638 processed in 0.197s\n","Frame 639 processed in 0.193s\n","Frame 640 processed in 0.197s\n","Frame 641 processed in 0.199s\n","Frame 642 processed in 0.199s\n","Frame 643 processed in 0.202s\n","Frame 644 processed in 0.197s\n","Frame 645 processed in 0.203s\n","Frame 646 processed in 0.197s\n","Frame 647 processed in 0.201s\n","Frame 648 processed in 0.195s\n","Frame 649 processed in 0.195s\n","Frame 650 processed in 0.197s\n","Frame 651 processed in 0.196s\n","Frame 652 processed in 0.200s\n","Frame 653 processed in 0.200s\n","Frame 654 processed in 0.205s\n","Frame 655 processed in 0.198s\n","Frame 656 processed in 0.196s\n","Frame 657 processed in 0.199s\n","Frame 658 processed in 0.198s\n","Frame 659 processed in 0.204s\n","Frame 660 processed in 0.205s\n","Frame 661 processed in 0.203s\n","Frame 662 processed in 0.197s\n","Frame 663 processed in 0.201s\n","Frame 664 processed in 0.201s\n","Frame 665 processed in 0.198s\n","Frame 666 processed in 0.192s\n","Frame 667 processed in 0.195s\n","Frame 668 processed in 0.197s\n","Frame 669 processed in 0.196s\n","Frame 670 processed in 0.198s\n","Frame 671 processed in 0.202s\n","Frame 672 processed in 0.196s\n","Frame 673 processed in 0.196s\n","Frame 674 processed in 0.194s\n","Frame 675 processed in 0.191s\n","Frame 676 processed in 0.196s\n","Frame 677 processed in 0.193s\n","Frame 678 processed in 0.198s\n","Frame 679 processed in 0.199s\n","Frame 680 processed in 0.200s\n","Frame 681 processed in 0.198s\n","Frame 682 processed in 0.200s\n","Frame 683 processed in 0.200s\n","Frame 684 processed in 0.194s\n","Frame 685 processed in 0.195s\n","Frame 686 processed in 0.197s\n","Frame 687 processed in 0.199s\n","Frame 688 processed in 0.203s\n","Frame 689 processed in 0.200s\n","Frame 690 processed in 0.201s\n","Frame 691 processed in 0.201s\n","Frame 692 processed in 0.200s\n","Frame 693 processed in 0.199s\n","Frame 694 processed in 0.197s\n","Frame 695 processed in 0.194s\n","Frame 696 processed in 0.197s\n","Frame 697 processed in 0.197s\n","Frame 698 processed in 0.201s\n","Frame 699 processed in 0.203s\n","Frame 700 processed in 0.202s\n","Frame 701 processed in 0.201s\n","Frame 702 processed in 0.201s\n","Frame 703 processed in 0.199s\n","Frame 704 processed in 0.199s\n","Frame 705 processed in 0.198s\n","Frame 706 processed in 0.198s\n","Frame 707 processed in 0.203s\n","Frame 708 processed in 0.201s\n","Frame 709 processed in 0.202s\n","Frame 710 processed in 0.206s\n","Frame 711 processed in 0.200s\n","Frame 712 processed in 0.198s\n","Frame 713 processed in 0.197s\n","Frame 714 processed in 0.197s\n","Frame 715 processed in 0.195s\n","Frame 716 processed in 0.198s\n","Frame 717 processed in 0.199s\n","Frame 718 processed in 0.203s\n","Frame 719 processed in 0.200s\n","Frame 720 processed in 0.198s\n","Frame 721 processed in 0.197s\n","Frame 722 processed in 0.201s\n","Frame 723 processed in 0.199s\n","Frame 724 processed in 0.202s\n","Frame 725 processed in 0.199s\n","Frame 726 processed in 0.205s\n","Frame 727 processed in 0.198s\n","Frame 728 processed in 0.199s\n","Frame 729 processed in 0.199s\n","Frame 730 processed in 0.197s\n","Frame 731 processed in 0.196s\n","Frame 732 processed in 0.195s\n","Frame 733 processed in 0.200s\n","Frame 734 processed in 0.198s\n","Frame 735 processed in 0.198s\n","Frame 736 processed in 0.196s\n","Frame 737 processed in 0.196s\n","Frame 738 processed in 0.190s\n","Frame 739 processed in 0.201s\n","Frame 740 processed in 0.200s\n","Frame 741 processed in 0.204s\n","Frame 742 processed in 0.204s\n","Frame 743 processed in 0.196s\n","Frame 744 processed in 0.197s\n","Frame 745 processed in 0.200s\n","Frame 746 processed in 0.199s\n","Frame 747 processed in 0.200s\n","Frame 748 processed in 0.197s\n","Frame 749 processed in 0.197s\n","Frame 750 processed in 0.195s\n","Frame 751 processed in 0.198s\n","Frame 752 processed in 0.190s\n","Frame 753 processed in 0.198s\n","Frame 754 processed in 0.198s\n","Frame 755 processed in 0.197s\n","Frame 756 processed in 0.199s\n","Frame 757 processed in 0.197s\n","Frame 758 processed in 0.207s\n","Frame 759 processed in 0.194s\n","Frame 760 processed in 0.196s\n","Frame 761 processed in 0.197s\n","Frame 762 processed in 0.198s\n","Frame 763 processed in 0.198s\n","Frame 764 processed in 0.203s\n","Frame 765 processed in 0.197s\n","Frame 766 processed in 0.196s\n","Frame 767 processed in 0.198s\n","Frame 768 processed in 0.198s\n","Frame 769 processed in 0.198s\n","Frame 770 processed in 0.201s\n","Frame 771 processed in 0.196s\n","Frame 772 processed in 0.201s\n","Frame 773 processed in 0.200s\n","Frame 774 processed in 0.196s\n","Frame 775 processed in 0.204s\n","Frame 776 processed in 0.200s\n","Frame 777 processed in 0.198s\n","Frame 778 processed in 0.198s\n","Frame 779 processed in 0.194s\n","Frame 780 processed in 0.204s\n","Frame 781 processed in 0.198s\n","Frame 782 processed in 0.199s\n","Frame 783 processed in 0.199s\n","Frame 784 processed in 0.196s\n","Frame 785 processed in 0.200s\n","Frame 786 processed in 0.203s\n","Frame 787 processed in 0.198s\n","Frame 788 processed in 0.201s\n","Frame 789 processed in 0.201s\n","Frame 790 processed in 0.204s\n","Frame 791 processed in 0.197s\n","Frame 792 processed in 0.198s\n","Frame 793 processed in 0.199s\n","Frame 794 processed in 0.195s\n","Frame 795 processed in 0.198s\n","Frame 796 processed in 0.200s\n","Frame 797 processed in 0.200s\n","Frame 798 processed in 0.198s\n","Frame 799 processed in 0.196s\n","Frame 800 processed in 0.197s\n","Frame 801 processed in 0.196s\n","Frame 802 processed in 0.202s\n","Frame 803 processed in 0.202s\n","Frame 804 processed in 0.202s\n","Frame 805 processed in 0.207s\n","Frame 806 processed in 0.207s\n","Frame 807 processed in 0.197s\n","Frame 808 processed in 0.200s\n","Frame 809 processed in 0.200s\n","Frame 810 processed in 0.199s\n","Frame 811 processed in 0.199s\n","Frame 812 processed in 0.204s\n","Frame 813 processed in 0.201s\n","Frame 814 processed in 0.199s\n","Frame 815 processed in 0.200s\n","Frame 816 processed in 0.196s\n","Frame 817 processed in 0.195s\n","Frame 818 processed in 0.198s\n","Frame 819 processed in 0.197s\n","Frame 820 processed in 0.198s\n","Frame 821 processed in 0.199s\n","Frame 822 processed in 0.201s\n","Frame 823 processed in 0.197s\n","Frame 824 processed in 0.199s\n","Frame 825 processed in 0.205s\n","Frame 826 processed in 0.199s\n","Frame 827 processed in 0.205s\n","Frame 828 processed in 0.201s\n","Frame 829 processed in 0.198s\n","Frame 830 processed in 0.198s\n","Frame 831 processed in 0.191s\n","Frame 832 processed in 0.197s\n","Frame 833 processed in 0.200s\n","Frame 834 processed in 0.199s\n","Frame 835 processed in 0.201s\n","Frame 836 processed in 0.197s\n","Frame 837 processed in 0.202s\n","Frame 838 processed in 0.200s\n","Frame 839 processed in 0.200s\n","Frame 840 processed in 0.200s\n","Frame 841 processed in 0.200s\n","Frame 842 processed in 0.205s\n","Frame 843 processed in 0.198s\n","Frame 844 processed in 0.200s\n","Frame 845 processed in 0.200s\n","Frame 846 processed in 0.201s\n","Frame 847 processed in 0.199s\n","Frame 848 processed in 0.199s\n","Frame 849 processed in 0.197s\n","Frame 850 processed in 0.204s\n","Frame 851 processed in 0.200s\n","Frame 852 processed in 0.200s\n","Frame 853 processed in 0.199s\n","Frame 854 processed in 0.196s\n","Frame 855 processed in 0.195s\n","Frame 856 processed in 0.199s\n","Frame 857 processed in 0.198s\n","Frame 858 processed in 0.190s\n","Frame 859 processed in 0.193s\n","Frame 860 processed in 0.190s\n","Frame 861 processed in 0.195s\n","Frame 862 processed in 0.198s\n","Frame 863 processed in 0.198s\n","Frame 864 processed in 0.201s\n","Frame 865 processed in 0.201s\n","Frame 866 processed in 0.200s\n","Frame 867 processed in 0.202s\n","Frame 868 processed in 0.199s\n","Frame 869 processed in 0.203s\n","Frame 870 processed in 0.204s\n","Frame 871 processed in 0.200s\n","Frame 872 processed in 0.200s\n","Frame 873 processed in 0.202s\n","Frame 874 processed in 0.201s\n","Frame 875 processed in 0.206s\n","Frame 876 processed in 0.205s\n","Frame 877 processed in 0.204s\n","Frame 878 processed in 0.198s\n","Frame 879 processed in 0.199s\n","Frame 880 processed in 0.200s\n","Frame 881 processed in 0.199s\n","Frame 882 processed in 0.200s\n","Frame 883 processed in 0.200s\n","Frame 884 processed in 0.200s\n","Frame 885 processed in 0.199s\n","Frame 886 processed in 0.197s\n","Frame 887 processed in 0.196s\n","Frame 888 processed in 0.190s\n","Frame 889 processed in 0.198s\n","Frame 890 processed in 0.195s\n","Frame 891 processed in 0.201s\n","Frame 892 processed in 0.197s\n","Frame 893 processed in 0.197s\n","Frame 894 processed in 0.203s\n","Frame 895 processed in 0.199s\n","Frame 896 processed in 0.197s\n","Frame 897 processed in 0.203s\n","Frame 898 processed in 0.199s\n","Frame 899 processed in 0.202s\n","Frame 900 processed in 0.202s\n","Frame 901 processed in 0.201s\n","Frame 902 processed in 0.196s\n","Frame 903 processed in 0.203s\n","Frame 904 processed in 0.197s\n","Frame 905 processed in 0.208s\n","Frame 906 processed in 0.200s\n","Frame 907 processed in 0.203s\n","Frame 908 processed in 0.203s\n","Frame 909 processed in 0.201s\n","Frame 910 processed in 0.208s\n","Frame 911 processed in 0.202s\n","Frame 912 processed in 0.203s\n","Frame 913 processed in 0.203s\n","Frame 914 processed in 0.204s\n","Frame 915 processed in 0.200s\n","Frame 916 processed in 0.201s\n","Frame 917 processed in 0.201s\n","Frame 918 processed in 0.200s\n","Frame 919 processed in 0.200s\n","Frame 920 processed in 0.202s\n","Frame 921 processed in 0.203s\n","Frame 922 processed in 0.200s\n","Frame 923 processed in 0.200s\n","Frame 924 processed in 0.200s\n","Frame 925 processed in 0.199s\n","Frame 926 processed in 0.201s\n","Frame 927 processed in 0.198s\n","Frame 928 processed in 0.199s\n","Frame 929 processed in 0.199s\n","Frame 930 processed in 0.200s\n","Frame 931 processed in 0.201s\n","Frame 932 processed in 0.204s\n","Frame 933 processed in 0.201s\n","Frame 934 processed in 0.202s\n","Frame 935 processed in 0.203s\n","Frame 936 processed in 0.203s\n","Frame 937 processed in 0.202s\n","Frame 938 processed in 0.201s\n","Frame 939 processed in 0.202s\n","Frame 940 processed in 0.198s\n","Frame 941 processed in 0.200s\n","Frame 942 processed in 0.200s\n","Frame 943 processed in 0.198s\n","Frame 944 processed in 0.200s\n","Frame 945 processed in 0.198s\n","Frame 946 processed in 0.200s\n","Frame 947 processed in 0.199s\n","Frame 948 processed in 0.198s\n","Frame 949 processed in 0.199s\n","Frame 950 processed in 0.199s\n","Frame 951 processed in 0.206s\n","Frame 952 processed in 0.201s\n","Frame 953 processed in 0.199s\n","Frame 954 processed in 0.202s\n","Frame 955 processed in 0.201s\n","Frame 956 processed in 0.200s\n","Frame 957 processed in 0.200s\n","Frame 958 processed in 0.201s\n","Frame 959 processed in 0.201s\n","Frame 960 processed in 0.200s\n","Frame 961 processed in 0.202s\n","Frame 962 processed in 0.199s\n","Frame 963 processed in 0.200s\n","Frame 964 processed in 0.198s\n","Frame 965 processed in 0.202s\n","Frame 966 processed in 0.202s\n","Frame 967 processed in 0.200s\n","Frame 968 processed in 0.200s\n","Frame 969 processed in 0.201s\n","Frame 970 processed in 0.200s\n","Frame 971 processed in 0.201s\n","Frame 972 processed in 0.199s\n","Frame 973 processed in 0.198s\n","Frame 974 processed in 0.201s\n","Frame 975 processed in 0.202s\n","Frame 976 processed in 0.201s\n","Frame 977 processed in 0.199s\n","Frame 978 processed in 0.201s\n","Frame 979 processed in 0.202s\n","Frame 980 processed in 0.200s\n","Frame 981 processed in 0.203s\n","Frame 982 processed in 0.201s\n","Frame 983 processed in 0.201s\n","Frame 984 processed in 0.202s\n","Frame 985 processed in 0.201s\n","Frame 986 processed in 0.201s\n","Frame 987 processed in 0.200s\n","Frame 988 processed in 0.200s\n","Frame 989 processed in 0.200s\n","Frame 990 processed in 0.204s\n","Frame 991 processed in 0.200s\n","Frame 992 processed in 0.199s\n","Frame 993 processed in 0.200s\n","Frame 994 processed in 0.201s\n","Frame 995 processed in 0.201s\n","Frame 996 processed in 0.203s\n","Frame 997 processed in 0.199s\n","Frame 998 processed in 0.201s\n","Frame 999 processed in 0.199s\n","Frame 1000 processed in 0.200s\n","Frame 1001 processed in 0.202s\n","Frame 1002 processed in 0.200s\n","Frame 1003 processed in 0.200s\n","Frame 1004 processed in 0.202s\n","Frame 1005 processed in 0.200s\n","Frame 1006 processed in 0.200s\n","Frame 1007 processed in 0.200s\n","Frame 1008 processed in 0.199s\n","Frame 1009 processed in 0.200s\n","Frame 1010 processed in 0.201s\n","Frame 1011 processed in 0.203s\n","Frame 1012 processed in 0.199s\n","Frame 1013 processed in 0.198s\n","Frame 1014 processed in 0.201s\n","Frame 1015 processed in 0.200s\n","Frame 1016 processed in 0.201s\n","Frame 1017 processed in 0.201s\n","Frame 1018 processed in 0.200s\n","Frame 1019 processed in 0.203s\n","frame= 1021 fps=4.8 q=-0.0 Lsize= 2756700kB time=00:00:34.20 bitrate=660318.3kbits/s speed=0.162x    \n","video:2756700kB audio:0kB subtitle:0kB other streams:0kB global headers:0kB muxing overhead: 0.000000%\n","Frame 1020 processed in 0.205s\n","/usr/local/lib/python3.6/dist-packages/numpy/core/_asarray.py:136: VisibleDeprecationWarning: Creating an ndarray from ragged nested sequences (which is a list-or-tuple of lists-or-tuples-or ndarrays with different lengths or shapes) is deprecated. If you meant to do this, you must specify 'dtype=object' when creating the ndarray\n","  return array(a, dtype, copy=False, order=order, subok=True)\n","Processing inputs/quad.mp4\n","ffmpeg version 3.4.8-0ubuntu0.2 Copyright (c) 2000-2020 the FFmpeg developers\n","  built with gcc 7 (Ubuntu 7.5.0-3ubuntu1~18.04)\n","  configuration: --prefix=/usr --extra-version=0ubuntu0.2 --toolchain=hardened --libdir=/usr/lib/x86_64-linux-gnu --incdir=/usr/include/x86_64-linux-gnu --enable-gpl --disable-stripping --enable-avresample --enable-avisynth --enable-gnutls --enable-ladspa --enable-libass --enable-libbluray --enable-libbs2b --enable-libcaca --enable-libcdio --enable-libflite --enable-libfontconfig --enable-libfreetype --enable-libfribidi --enable-libgme --enable-libgsm --enable-libmp3lame --enable-libmysofa --enable-libopenjpeg --enable-libopenmpt --enable-libopus --enable-libpulse --enable-librubberband --enable-librsvg --enable-libshine --enable-libsnappy --enable-libsoxr --enable-libspeex --enable-libssh --enable-libtheora --enable-libtwolame --enable-libvorbis --enable-libvpx --enable-libwavpack --enable-libwebp --enable-libx265 --enable-libxml2 --enable-libxvid --enable-libzmq --enable-libzvbi --enable-omx --enable-openal --enable-opengl --enable-sdl2 --enable-libdc1394 --enable-libdrm --enable-libiec61883 --enable-chromaprint --enable-frei0r --enable-libopencv --enable-libx264 --enable-shared\n","  libavutil      55. 78.100 / 55. 78.100\n","  libavcodec     57.107.100 / 57.107.100\n","  libavformat    57. 83.100 / 57. 83.100\n","  libavdevice    57. 10.100 / 57. 10.100\n","  libavfilter     6.107.100 /  6.107.100\n","  libavresample   3.  7.  0 /  3.  7.  0\n","  libswscale      4.  8.100 /  4.  8.100\n","  libswresample   2.  9.100 /  2.  9.100\n","  libpostproc    54.  7.100 / 54.  7.100\n","Input #0, mov,mp4,m4a,3gp,3g2,mj2, from 'inputs/quad.mp4':\n","  Metadata:\n","    major_brand     : isom\n","    minor_version   : 512\n","    compatible_brands: isomiso2avc1mp41\n","    encoder         : Lavf58.65.100\n","  Duration: 00:00:08.00, start: 0.000000, bitrate: 1577 kb/s\n","    Stream #0:0(und): Video: h264 (High) (avc1 / 0x31637661), yuv420p(tv, bt709), 1280x720 [SAR 1:1 DAR 16:9], 1575 kb/s, 30 fps, 30 tbr, 15360 tbn, 60 tbc (default)\n","    Metadata:\n","      handler_name    : ISO Media file produced by Google Inc.\n","Stream mapping:\n","  Stream #0:0 -> #0:0 (h264 (native) -> rawvideo (native))\n","Press [q] to stop, [?] for help\n","Output #0, image2pipe, to 'pipe:':\n","  Metadata:\n","    major_brand     : isom\n","    minor_version   : 512\n","    compatible_brands: isomiso2avc1mp41\n","    encoder         : Lavf57.83.100\n","    Stream #0:0(und): Video: rawvideo (BGR[24] / 0x18524742), bgr24, 1280x720 [SAR 1:1 DAR 16:9], q=2-31, 663552 kb/s, 30 fps, 30 tbn, 30 tbc (default)\n","    Metadata:\n","      handler_name    : ISO Media file produced by Google Inc.\n","      encoder         : Lavc57.107.100 rawvideo\n","Frame 0 processed in 0.276s\n","Frame 1 processed in 0.200s\n","Frame 2 processed in 0.196s\n","Frame 3 processed in 0.196s\n","Frame 4 processed in 0.196s\n","Frame 5 processed in 0.195s\n","Frame 6 processed in 0.195s\n","Frame 7 processed in 0.199s\n","Frame 8 processed in 0.197s\n","Frame 9 processed in 0.196s\n","Frame 10 processed in 0.198s\n","Frame 11 processed in 0.200s\n","Frame 12 processed in 0.198s\n","Frame 13 processed in 0.193s\n","Frame 14 processed in 0.194s\n","Frame 15 processed in 0.196s\n","Frame 16 processed in 0.194s\n","Frame 17 processed in 0.194s\n","Frame 18 processed in 0.196s\n","Frame 19 processed in 0.197s\n","Frame 20 processed in 0.193s\n","Frame 21 processed in 0.197s\n","Frame 22 processed in 0.197s\n","Frame 23 processed in 0.203s\n","Frame 24 processed in 0.196s\n","Frame 25 processed in 0.201s\n","Frame 26 processed in 0.200s\n","Frame 27 processed in 0.199s\n","Frame 28 processed in 0.203s\n","Frame 29 processed in 0.205s\n","Frame 30 processed in 0.202s\n","Frame 31 processed in 0.197s\n","Frame 32 processed in 0.198s\n","Frame 33 processed in 0.198s\n","Frame 34 processed in 0.199s\n","Frame 35 processed in 0.200s\n","Frame 36 processed in 0.200s\n","Frame 37 processed in 0.202s\n","Frame 38 processed in 0.200s\n","Frame 39 processed in 0.197s\n","Frame 40 processed in 0.197s\n","Frame 41 processed in 0.198s\n","Frame 42 processed in 0.200s\n","Frame 43 processed in 0.195s\n","Frame 44 processed in 0.198s\n","Frame 45 processed in 0.194s\n","Frame 46 processed in 0.195s\n","Frame 47 processed in 0.199s\n","Frame 48 processed in 0.197s\n","Frame 49 processed in 0.196s\n","Frame 50 processed in 0.194s\n","Frame 51 processed in 0.196s\n","Frame 52 processed in 0.197s\n","Frame 53 processed in 0.200s\n","Frame 54 processed in 0.200s\n","Frame 55 processed in 0.200s\n","Frame 56 processed in 0.195s\n","Frame 57 processed in 0.200s\n","Frame 58 processed in 0.196s\n","Frame 59 processed in 0.196s\n","Frame 60 processed in 0.198s\n","Frame 61 processed in 0.200s\n","Frame 62 processed in 0.201s\n","Frame 63 processed in 0.200s\n","Frame 64 processed in 0.199s\n","Frame 65 processed in 0.199s\n","Frame 66 processed in 0.201s\n","Frame 67 processed in 0.202s\n","Frame 68 processed in 0.202s\n","Frame 69 processed in 0.201s\n","Frame 70 processed in 0.202s\n","Frame 71 processed in 0.203s\n","Frame 72 processed in 0.205s\n","Frame 73 processed in 0.200s\n","Frame 74 processed in 0.201s\n","Frame 75 processed in 0.207s\n","Frame 76 processed in 0.207s\n","Frame 77 processed in 0.206s\n","Frame 78 processed in 0.204s\n","Frame 79 processed in 0.201s\n","Frame 80 processed in 0.201s\n","Frame 81 processed in 0.201s\n","Frame 82 processed in 0.203s\n","Frame 83 processed in 0.208s\n","Frame 84 processed in 0.205s\n","Frame 85 processed in 0.205s\n","Frame 86 processed in 0.202s\n","Frame 87 processed in 0.210s\n","Frame 88 processed in 0.205s\n","Frame 89 processed in 0.200s\n","frame=   91 fps=4.9 q=-0.0 Lsize=  245700kB time=00:00:03.03 bitrate=663552.1kbits/s speed=0.163x    \n","video:245700kB audio:0kB subtitle:0kB other streams:0kB global headers:0kB muxing overhead: 0.000000%\n","Frame 90 processed in 0.200s\n","/usr/local/lib/python3.6/dist-packages/numpy/core/_asarray.py:136: VisibleDeprecationWarning: Creating an ndarray from ragged nested sequences (which is a list-or-tuple of lists-or-tuples-or ndarrays with different lengths or shapes) is deprecated. If you meant to do this, you must specify 'dtype=object' when creating the ndarray\n","  return array(a, dtype, copy=False, order=order, subok=True)\n"],"name":"stdout"}]},{"cell_type":"code","metadata":{"colab":{"base_uri":"https://localhost:8080/"},"id":"4N4vqtD5wuU8","executionInfo":{"status":"ok","timestamp":1609227661225,"user_tz":-540,"elapsed":811,"user":{"displayName":"久保友輔","photoUrl":"","userId":"14128921004628888283"}},"outputId":"b5510828-1f72-49d5-c069-fd5d483b15e4"},"source":["%cd ../data"],"execution_count":null,"outputs":[{"output_type":"stream","text":["/content/drive/My Drive/ProgramFiles/VideoPose3D/data\n"],"name":"stdout"}]},{"cell_type":"code","metadata":{"colab":{"base_uri":"https://localhost:8080/"},"id":"igSuTqWMwwrw","executionInfo":{"status":"ok","timestamp":1609227663608,"user_tz":-540,"elapsed":3187,"user":{"displayName":"久保友輔","photoUrl":"","userId":"14128921004628888283"}},"outputId":"44fb6f28-4a4c-4021-d7f6-29883570a180"},"source":["!python prepare_data_2d_custom.py -i ../inference/outputs/ -o myvideos"],"execution_count":null,"outputs":[{"output_type":"stream","text":["Parsing 2D detections from ../inference/outputs/\n","Processing ../inference/outputs/quad_slow.mp4.npz\n","147 total frames processed\n","43 frames were interpolated\n","----------\n","Processing ../inference/outputs/spin.mp4.npz\n","1021 total frames processed\n","0 frames were interpolated\n","----------\n","Processing ../inference/outputs/quad.mp4.npz\n","91 total frames processed\n","0 frames were interpolated\n","----------\n","Processing ../inference/outputs/quad_crop.mp4.npz\n","149 total frames processed\n","1 frames were interpolated\n","----------\n","Saving...\n","Done.\n"],"name":"stdout"}]},{"cell_type":"code","metadata":{"colab":{"base_uri":"https://localhost:8080/"},"id":"sZX7VPZkyuKd","executionInfo":{"status":"ok","timestamp":1609227663609,"user_tz":-540,"elapsed":3183,"user":{"displayName":"久保友輔","photoUrl":"","userId":"14128921004628888283"}},"outputId":"20b3cb19-2a55-4311-fb21-a64450c5a82b"},"source":["%cd ../"],"execution_count":null,"outputs":[{"output_type":"stream","text":["/content/drive/My Drive/ProgramFiles/VideoPose3D\n"],"name":"stdout"}]},{"cell_type":"code","metadata":{"colab":{"base_uri":"https://localhost:8080/"},"id":"PeUDUWRZyFB7","executionInfo":{"status":"ok","timestamp":1609228287505,"user_tz":-540,"elapsed":31315,"user":{"displayName":"久保友輔","photoUrl":"","userId":"14128921004628888283"}},"outputId":"199742de-fdd7-4191-b531-dcd5b28b2582"},"source":["!python run.py -d custom -k myvideos -arc 3,3,3,3,3 -c checkpoint --evaluate pretrained_h36m_detectron_coco.bin --render --viz-subject quad_crop.mp4 --viz-action custom --viz-camera 0 --viz-video inference/inputs/quad_crop.mp4 --viz-output output_quad_crop_roll.mp4 --viz-size 6"],"execution_count":null,"outputs":[{"output_type":"stream","text":["Namespace(actions='*', architecture='3,3,3,3,3', batch_size=1024, bone_length_term=True, by_subject=False, causal=False, channels=1024, checkpoint='checkpoint', checkpoint_frequency=10, data_augmentation=True, dataset='custom', dense=False, disable_optimizations=False, downsample=1, dropout=0.25, epochs=60, evaluate='pretrained_h36m_detectron_coco.bin', export_training_curves=False, keypoints='myvideos', learning_rate=0.001, linear_projection=False, lr_decay=0.95, no_eval=False, no_proj=False, render=True, resume='', stride=1, subjects_test='S9,S11', subjects_train='S1,S5,S6,S7,S8', subjects_unlabeled='', subset=1, test_time_augmentation=True, viz_action='custom', viz_bitrate=3000, viz_camera=0, viz_downsample=1, viz_export=None, viz_limit=-1, viz_no_ground_truth=False, viz_output='output_quad_crop_roll.mp4', viz_size=6, viz_skip=0, viz_subject='quad_crop.mp4', viz_video='inference/inputs/quad_crop.mp4', warmup=1)\n","Loading dataset...\n","Preparing data...\n","Loading 2D detections...\n","INFO: Receptive field: 243 frames\n","INFO: Trainable parameter count: 16952371\n","Loading checkpoint checkpoint/pretrained_h36m_detectron_coco.bin\n","This model was trained for 80 epochs\n","INFO: Testing on 149 frames\n","Rendering...\n","INFO: this action is unlabeled. Ground truth will not be rendered.\n","ffmpeg version 3.4.8-0ubuntu0.2 Copyright (c) 2000-2020 the FFmpeg developers\n","  built with gcc 7 (Ubuntu 7.5.0-3ubuntu1~18.04)\n","  configuration: --prefix=/usr --extra-version=0ubuntu0.2 --toolchain=hardened --libdir=/usr/lib/x86_64-linux-gnu --incdir=/usr/include/x86_64-linux-gnu --enable-gpl --disable-stripping --enable-avresample --enable-avisynth --enable-gnutls --enable-ladspa --enable-libass --enable-libbluray --enable-libbs2b --enable-libcaca --enable-libcdio --enable-libflite --enable-libfontconfig --enable-libfreetype --enable-libfribidi --enable-libgme --enable-libgsm --enable-libmp3lame --enable-libmysofa --enable-libopenjpeg --enable-libopenmpt --enable-libopus --enable-libpulse --enable-librubberband --enable-librsvg --enable-libshine --enable-libsnappy --enable-libsoxr --enable-libspeex --enable-libssh --enable-libtheora --enable-libtwolame --enable-libvorbis --enable-libvpx --enable-libwavpack --enable-libwebp --enable-libx265 --enable-libxml2 --enable-libxvid --enable-libzmq --enable-libzvbi --enable-omx --enable-openal --enable-opengl --enable-sdl2 --enable-libdc1394 --enable-libdrm --enable-libiec61883 --enable-chromaprint --enable-frei0r --enable-libopencv --enable-libx264 --enable-shared\n","  libavutil      55. 78.100 / 55. 78.100\n","  libavcodec     57.107.100 / 57.107.100\n","  libavformat    57. 83.100 / 57. 83.100\n","  libavdevice    57. 10.100 / 57. 10.100\n","  libavfilter     6.107.100 /  6.107.100\n","  libavresample   3.  7.  0 /  3.  7.  0\n","  libswscale      4.  8.100 /  4.  8.100\n","  libswresample   2.  9.100 /  2.  9.100\n","  libpostproc    54.  7.100 / 54.  7.100\n","Input #0, mov,mp4,m4a,3gp,3g2,mj2, from 'inference/inputs/quad_crop.mp4':\n","  Metadata:\n","    major_brand     : isom\n","    minor_version   : 512\n","    compatible_brands: isomiso2avc1mp41\n","    encoder         : Lavf58.45.100\n","  Duration: 00:00:02.98, start: 0.000000, bitrate: 25186 kb/s\n","    Stream #0:0(und): Video: h264 (High 4:4:4 Predictive) (avc1 / 0x31637661), yuv420p, 768x532 [SAR 1:1 DAR 192:133], 25182 kb/s, 50 fps, 50 tbr, 12800 tbn, 100 tbc (default)\n","    Metadata:\n","      handler_name    : ISO Media file produced by Google Inc.\n","Stream mapping:\n","  Stream #0:0 -> #0:0 (h264 (native) -> rawvideo (native))\n","Press [q] to stop, [?] for help\n","Output #0, image2pipe, to 'pipe:':\n","  Metadata:\n","    major_brand     : isom\n","    minor_version   : 512\n","    compatible_brands: isomiso2avc1mp41\n","    encoder         : Lavf57.83.100\n","    Stream #0:0(und): Video: rawvideo (RGB[24] / 0x18424752), rgb24, 768x532 [SAR 1:1 DAR 192:133], q=2-31, 490291 kb/s, 50 fps, 50 tbn, 50 tbc (default)\n","    Metadata:\n","      handler_name    : ISO Media file produced by Google Inc.\n","      encoder         : Lavc57.107.100 rawvideo\n","frame=  149 fps=0.0 q=-0.0 Lsize=  178353kB time=00:00:02.98 bitrate=490291.2kbits/s speed=3.25x    \n","video:178353kB audio:0kB subtitle:0kB other streams:0kB global headers:0kB muxing overhead: 0.000000%\n"],"name":"stdout"}]},{"cell_type":"code","metadata":{"colab":{"base_uri":"https://localhost:8080/"},"id":"Wvxe4mkgHK2v","executionInfo":{"status":"ok","timestamp":1609136832428,"user_tz":-540,"elapsed":14576,"user":{"displayName":"久保友輔","photoUrl":"","userId":"14128921004628888283"}},"outputId":"78c85a5d-5c31-482c-bd58-39dab45d36b4"},"source":["!python run.py -d custom -k myvideos -arc 3,3,3,3,3 -c checkpoint --evaluate pretrained_h36m_detectron_coco.bin --render --viz-subject spin.mp4 --viz-action custom --viz-camera 0 --viz-video inference/inputs/spin.mp4 --viz-output output_spin.mp4 --viz-size 6"],"execution_count":null,"outputs":[{"output_type":"stream","text":["Namespace(actions='*', architecture='3,3,3,3,3', batch_size=1024, bone_length_term=True, by_subject=False, causal=False, channels=1024, checkpoint='checkpoint', checkpoint_frequency=10, data_augmentation=True, dataset='custom', dense=False, disable_optimizations=False, downsample=1, dropout=0.25, epochs=60, evaluate='pretrained_h36m_detectron_coco.bin', export_training_curves=False, keypoints='myvideos', learning_rate=0.001, linear_projection=False, lr_decay=0.95, no_eval=False, no_proj=False, render=True, resume='', stride=1, subjects_test='S9,S11', subjects_train='S1,S5,S6,S7,S8', subjects_unlabeled='', subset=1, test_time_augmentation=True, viz_action='custom', viz_bitrate=3000, viz_camera=0, viz_downsample=1, viz_export=None, viz_limit=-1, viz_no_ground_truth=False, viz_output='output_spin.mp4', viz_size=6, viz_skip=0, viz_subject='spin.mp4', viz_video='inference/inputs/spin.mp4', warmup=1)\n","Loading dataset...\n","Preparing data...\n","Loading 2D detections...\n","INFO: Receptive field: 243 frames\n","INFO: Trainable parameter count: 16952371\n","Loading checkpoint checkpoint/pretrained_h36m_detectron_coco.bin\n","This model was trained for 80 epochs\n","INFO: Testing on 1021 frames\n","Rendering...\n","INFO: this action is unlabeled. Ground truth will not be rendered.\n","Exception ignored in: <function TransformNode.set_children.<locals>.<lambda> at 0x7fc6408a9620>\n","Traceback (most recent call last):\n","  File \"/usr/local/lib/python3.6/dist-packages/matplotlib/transforms.py\", line 178, in <lambda>\n","KeyboardInterrupt\n","ffmpeg version 3.4.8-0ubuntu0.2 Copyright (c) 2000-2020 the FFmpeg developers\n","  built with gcc 7 (Ubuntu 7.5.0-3ubuntu1~18.04)\n","  configuration: --prefix=/usr --extra-version=0ubuntu0.2 --toolchain=hardened --libdir=/usr/lib/x86_64-linux-gnu --incdir=/usr/include/x86_64-linux-gnu --enable-gpl --disable-stripping --enable-avresample --enable-avisynth --enable-gnutls --enable-ladspa --enable-libass --enable-libbluray --enable-libbs2b --enable-libcaca --enable-libcdio --enable-libflite --enable-libfontconfig --enable-libfreetype --enable-libfribidi --enable-libgme --enable-libgsm --enable-libmp3lame --enable-libmysofa --enable-libopenjpeg --enable-libopenmpt --enable-libopus --enable-libpulse --enable-librubberband --enable-librsvg --enable-libshine --enable-libsnappy --enable-libsoxr --enable-libspeex --enable-libssh --enable-libtheora --enable-libtwolame --enable-libvorbis --enable-libvpx --enable-libwavpack --enable-libwebp --enable-libx265 --enable-libxml2 --enable-libxvid --enable-libzmq --enable-libzvbi --enable-omx --enable-openal --enable-opengl --enable-sdl2 --enable-libdc1394 --enable-libdrm --enable-libiec61883 --enable-chromaprint --enable-frei0r --enable-libopencv --enable-libx264 --enable-shared\n","  libavutil      55. 78.100 / 55. 78.100\n","  libavcodec     57.107.100 / 57.107.100\n","  libavformat    57. 83.100 / 57. 83.100\n","  libavdevice    57. 10.100 / 57. 10.100\n","  libavfilter     6.107.100 /  6.107.100\n","  libavresample   3.  7.  0 /  3.  7.  0\n","  libswscale      4.  8.100 /  4.  8.100\n","  libswresample   2.  9.100 /  2.  9.100\n","  libpostproc    54.  7.100 / 54.  7.100\n","Input #0, mov,mp4,m4a,3gp,3g2,mj2, from 'inference/inputs/spin.mp4':\n","  Metadata:\n","    major_brand     : isom\n","    minor_version   : 512\n","    compatible_brands: isomiso2avc1mp41\n","    encoder         : Lavf58.65.100\n","  Duration: 00:00:39.17, start: -0.033333, bitrate: 1524 kb/s\n","    Stream #0:0(und): Video: h264 (High) (avc1 / 0x31637661), yuv420p(tv, bt709), 1280x720 [SAR 1:1 DAR 16:9], 1528 kb/s, 30 fps, 30 tbr, 15360 tbn, 60 tbc (default)\n","    Metadata:\n","      handler_name    : ISO Media file produced by Google Inc.\n","Stream mapping:\n","  Stream #0:0 -> #0:0 (h264 (native) -> rawvideo (native))\n","Press [q] to stop, [?] for help\n","Output #0, image2pipe, to 'pipe:':\n","  Metadata:\n","    major_brand     : isom\n","    minor_version   : 512\n","    compatible_brands: isomiso2avc1mp41\n","    encoder         : Lavf57.83.100\n","    Stream #0:0(und): Video: rawvideo (RGB[24] / 0x18424752), rgb24, 1280x720 [SAR 1:1 DAR 16:9], q=2-31, 663552 kb/s, 30 fps, 30 tbn, 30 tbc (default)\n","    Metadata:\n","      handler_name    : ISO Media file produced by Google Inc.\n","      encoder         : Lavc57.107.100 rawvideo\n","frame= 1021 fps=168 q=-0.0 Lsize= 2756700kB time=00:00:34.20 bitrate=660318.3kbits/s speed=5.64x    \n","video:2756700kB audio:0kB subtitle:0kB other streams:0kB global headers:0kB muxing overhead: 0.000000%\n","^C\n"],"name":"stdout"}]}]}